<svg width="20" height="19" viewBox="0 0 20 19" fill="none" xmlns="http://www.w3.org/2000/svg">
<path d="M9.47828 17.9922L9.47175 17.9887L9.4491 17.9764C9.42981 17.9659 9.40222 17.9508 9.36689 17.9311C9.29623 17.8917 9.19455 17.834 9.06627 17.7585C8.80981 17.6076 8.44649 17.3854 8.01186 17.0965C7.14405 16.5196 5.98453 15.6716 4.82191 14.5879C2.52112 12.4431 0.083313 9.25664 0.083313 5.33154C0.083313 2.40349 2.54691 0.081543 5.52081 0.081543C7.26969 0.081543 8.83563 0.88063 9.83331 2.13314C10.831 0.88063 12.3969 0.081543 14.1458 0.081543C17.1197 0.081543 19.5833 2.40349 19.5833 5.33154C19.5833 9.25664 17.1455 12.4431 14.8447 14.5879C13.6821 15.6716 12.5226 16.5196 11.6548 17.0965C11.2201 17.3854 10.8568 17.6076 10.6004 17.7585C10.4721 17.834 10.3704 17.8917 10.2997 17.9311C10.2644 17.9508 10.2368 17.9659 10.2175 17.9764L10.1949 17.9887L10.1883 17.9922L10.1856 17.9937C9.96562 18.1105 9.701 18.1105 9.48104 17.9937L9.47828 17.9922Z" fill="white"/>
</svg>
