<svg width="903" height="613" viewBox="0 0 903 613" fill="none" xmlns="http://www.w3.org/2000/svg">
<path d="M902.169 1.47058C902.429 1.37727 902.564 1.09093 902.471 0.831032C902.377 0.571135 902.091 0.436097 901.831 0.529416L902.169 1.47058ZM-133.913 580.988C-133.659 581.096 -133.365 580.976 -133.258 580.722C-133.151 580.467 -133.27 580.174 -133.524 580.067L-133.913 580.988ZM-115.215 587.349C-115.474 587.253 -115.762 587.384 -115.858 587.643C-115.955 587.901 -115.824 588.19 -115.565 588.286L-115.215 587.349ZM-97.0432 594.738C-96.7805 594.823 -96.4986 594.679 -96.4137 594.416C-96.3288 594.153 -96.473 593.871 -96.7358 593.787L-97.0432 594.738ZM-77.8227 599.399C-78.0892 599.327 -78.3637 599.485 -78.4358 599.751C-78.5078 600.018 -78.3501 600.292 -78.0835 600.365L-77.8227 599.399ZM-59.0013 605.001C-58.7314 605.059 -58.4654 604.888 -58.4072 604.618C-58.349 604.348 -58.5207 604.082 -58.7906 604.024L-59.0013 605.001ZM-39.4513 607.644C-39.724 607.601 -39.9802 607.787 -40.0234 608.059C-40.0667 608.332 -39.8807 608.588 -39.608 608.632L-39.4513 607.644ZM-20.0686 611.16C-19.7938 611.188 -19.5488 610.987 -19.5213 610.713C-19.4938 610.438 -19.6943 610.193 -19.9691 610.165L-20.0686 611.16ZM-0.421951 611.534C-0.697876 611.523 -0.930466 611.738 -0.941467 612.014C-0.952469 612.29 -0.737717 612.522 -0.461792 612.533L-0.421951 611.534ZM19.2976 612.713C19.5737 612.707 19.7926 612.479 19.7866 612.203C19.7806 611.927 19.5519 611.708 19.2758 611.714L19.2976 612.713ZM38.8067 610.683C38.5315 610.706 38.3272 610.948 38.3503 611.223C38.3734 611.498 38.6151 611.702 38.8903 611.679L38.8067 610.683ZM58.534 609.413C58.8072 609.373 58.9961 609.119 58.956 608.846C58.9159 608.573 58.6618 608.384 58.3886 608.424L58.534 609.413ZM77.7056 604.982C77.4353 605.038 77.2621 605.303 77.3188 605.574C77.3754 605.844 77.6404 606.017 77.9107 605.96L77.7056 604.982ZM97.0824 601.347C97.3489 601.275 97.5063 601 97.4338 600.734C97.3614 600.467 97.0867 600.31 96.8202 600.382L97.0824 601.347ZM115.615 594.701C115.353 594.788 115.211 595.071 115.298 595.333C115.385 595.595 115.668 595.737 115.93 595.65L115.615 594.701ZM134.496 588.915C134.753 588.814 134.88 588.524 134.779 588.267C134.678 588.01 134.388 587.883 134.131 587.984L134.496 588.915ZM152.198 580.369C151.946 580.482 151.834 580.778 151.948 581.03C152.061 581.282 152.357 581.394 152.609 581.281L152.198 580.369ZM170.414 572.766C170.66 572.641 170.759 572.34 170.634 572.094C170.51 571.848 170.209 571.749 169.963 571.874L170.414 572.766ZM187.302 562.637C187.061 562.772 186.975 563.077 187.11 563.318C187.244 563.559 187.549 563.645 187.79 563.51L187.302 562.637ZM204.795 553.571C205.031 553.427 205.105 553.119 204.962 552.884C204.818 552.648 204.51 552.573 204.274 552.717L204.795 553.571ZM220.924 542.166C220.693 542.318 220.629 542.628 220.781 542.859C220.932 543.09 221.242 543.154 221.473 543.002L220.924 542.166ZM237.722 531.954C237.948 531.795 238.003 531.483 237.844 531.257C237.685 531.031 237.374 530.977 237.147 531.135L237.722 531.954ZM253.167 519.55C252.945 519.715 252.899 520.028 253.064 520.249C253.229 520.471 253.542 520.517 253.764 520.352L253.167 519.55ZM269.347 508.456C269.565 508.285 269.603 507.971 269.433 507.754C269.263 507.536 268.948 507.498 268.731 507.668L269.347 508.456ZM284.173 495.306C283.959 495.481 283.928 495.796 284.102 496.01C284.277 496.224 284.592 496.255 284.806 496.08L284.173 495.306ZM299.857 483.52C300.068 483.341 300.093 483.026 299.914 482.815C299.735 482.605 299.42 482.579 299.209 482.758L299.857 483.52ZM314.154 469.826C313.947 470.008 313.926 470.324 314.109 470.532C314.291 470.739 314.607 470.759 314.814 470.577L314.154 469.826ZM329.451 457.504C329.656 457.319 329.671 457.003 329.486 456.798C329.3 456.593 328.984 456.578 328.779 456.763L329.451 457.504ZM343.332 443.406C343.13 443.594 343.119 443.91 343.307 444.113C343.494 444.315 343.811 444.326 344.013 444.139L343.332 443.406ZM358.323 430.694C358.523 430.504 358.531 430.188 358.341 429.987C358.151 429.787 357.835 429.779 357.634 429.969L358.323 430.694ZM371.895 416.304C371.697 416.496 371.691 416.812 371.883 417.011C372.075 417.21 372.392 417.215 372.59 417.023L371.895 416.304ZM386.658 403.321C386.855 403.128 386.858 402.811 386.664 402.614C386.471 402.417 386.154 402.414 385.957 402.607L386.658 403.321ZM400.016 388.732C399.82 388.926 399.819 389.243 400.014 389.439C400.208 389.635 400.525 389.636 400.721 389.442L400.016 388.732ZM414.626 375.577C414.821 375.382 414.821 375.065 414.625 374.87C414.43 374.675 414.113 374.675 413.918 374.87L414.626 375.577ZM427.857 360.869C427.663 361.065 427.664 361.381 427.86 361.576C428.056 361.77 428.372 361.769 428.567 361.573L427.857 360.869ZM442.385 347.626C442.579 347.43 442.578 347.114 442.381 346.919C442.185 346.725 441.869 346.727 441.674 346.923L442.385 347.626ZM455.563 332.875C455.369 333.071 455.37 333.388 455.567 333.582C455.763 333.776 456.08 333.774 456.274 333.578L455.563 332.875ZM470.082 319.615C470.276 319.419 470.274 319.102 470.078 318.908C469.882 318.713 469.565 318.715 469.371 318.911L470.082 319.615ZM483.264 304.899C483.069 305.095 483.07 305.411 483.266 305.606C483.462 305.801 483.779 305.8 483.973 305.604L483.264 304.899ZM497.85 291.676C498.045 291.481 498.045 291.164 497.85 290.969C497.655 290.774 497.338 290.774 497.143 290.969L497.85 291.676ZM511.107 277.054C510.911 277.249 510.91 277.565 511.105 277.761C511.299 277.957 511.616 277.958 511.812 277.764L511.107 277.054ZM525.816 263.939C526.013 263.746 526.016 263.429 525.823 263.232C525.629 263.035 525.313 263.032 525.116 263.226L525.816 263.939ZM539.216 249.467C539.018 249.659 539.013 249.975 539.205 250.174C539.397 250.372 539.714 250.377 539.912 250.185L539.216 249.467ZM554.099 236.53C554.299 236.339 554.306 236.023 554.116 235.823C553.925 235.623 553.608 235.616 553.409 235.807L554.099 236.53ZM567.706 222.263C567.504 222.452 567.494 222.769 567.683 222.97C567.872 223.171 568.189 223.181 568.39 222.992L567.706 222.263ZM582.811 209.576C583.014 209.389 583.027 209.073 582.84 208.87C582.653 208.667 582.336 208.654 582.133 208.841L582.811 209.576ZM596.684 195.575C596.479 195.76 596.462 196.076 596.647 196.281C596.832 196.486 597.148 196.503 597.354 196.318L596.684 195.575ZM612.056 183.211C612.263 183.028 612.283 182.712 612.101 182.505C611.918 182.298 611.602 182.278 611.395 182.46L612.056 183.211ZM626.252 169.539C626.043 169.718 626.019 170.034 626.198 170.244C626.378 170.453 626.694 170.477 626.904 170.297L626.252 169.539ZM641.934 157.573C642.146 157.396 642.174 157.081 641.997 156.869C641.82 156.657 641.505 156.628 641.293 156.805L641.934 157.573ZM656.505 144.299C656.29 144.473 656.257 144.787 656.431 145.002C656.604 145.217 656.919 145.25 657.134 145.076L656.505 144.299ZM672.533 132.811C672.751 132.641 672.789 132.326 672.619 132.109C672.448 131.892 672.134 131.853 671.917 132.024L672.533 132.811ZM687.526 120.01C687.305 120.177 687.262 120.49 687.428 120.711C687.595 120.931 687.908 120.975 688.129 120.808L687.526 120.01ZM703.938 109.081C704.161 108.919 704.21 108.606 704.048 108.383C703.885 108.159 703.572 108.11 703.349 108.272L703.938 109.081ZM719.388 96.8369C719.162 96.995 719.106 97.3067 719.265 97.5331C719.423 97.7595 719.734 97.8149 719.961 97.6568L719.388 96.8369ZM736.21 86.5535C736.44 86.4001 736.501 86.0896 736.348 85.86C736.194 85.6304 735.884 85.5687 735.654 85.7221L736.21 86.5535ZM752.151 74.952C751.918 75.1004 751.85 75.4095 751.998 75.6423C752.147 75.8752 752.456 75.9436 752.689 75.7952L752.151 74.952ZM769.397 65.407C769.633 65.2639 769.708 64.9564 769.565 64.7203C769.422 64.4841 769.114 64.4087 768.878 64.5518L769.397 65.407ZM785.854 54.5353C785.615 54.6728 785.532 54.9784 785.67 55.2178C785.807 55.4573 786.113 55.54 786.352 55.4026L785.854 54.5353ZM803.522 45.8246C803.765 45.6931 803.855 45.3897 803.724 45.1468C803.592 44.904 803.289 44.8138 803.046 44.9453L803.522 45.8246ZM820.514 35.7712C820.268 35.8964 820.169 36.1974 820.295 36.4435C820.42 36.6896 820.721 36.7876 820.967 36.6624L820.514 35.7712ZM838.587 27.9885C838.836 27.8699 838.942 27.5716 838.823 27.3222C838.705 27.0729 838.407 26.9669 838.157 27.0855L838.587 27.9885ZM856.087 18.8533C855.835 18.965 855.721 19.2603 855.833 19.5128C855.944 19.7654 856.24 19.8795 856.492 19.7678L856.087 18.8533ZM874.563 12.0726C874.819 11.9681 874.941 11.6761 874.837 11.4205C874.732 11.1649 874.44 11.0425 874.185 11.1471L874.563 12.0726ZM892.539 3.94358C892.28 4.04072 892.15 4.32902 892.247 4.58751C892.344 4.846 892.632 4.9768 892.891 4.87966L892.539 3.94358ZM-143 576.5L-143.204 576.957C-140.094 578.344 -136.997 579.687 -133.913 580.988L-133.719 580.528L-133.524 580.067C-136.602 578.769 -139.692 577.428 -142.796 576.044L-143 576.5ZM-115.39 587.818L-115.565 588.286C-109.338 590.611 -103.165 592.76 -97.0432 594.738L-96.8895 594.262L-96.7358 593.787C-102.843 591.813 -109.002 589.669 -115.215 587.349L-115.39 587.818ZM-77.9531 599.882L-78.0835 600.365C-71.6672 602.098 -65.3072 603.642 -59.0013 605.001L-58.896 604.512L-58.7906 604.024C-65.0794 602.668 -71.4227 601.128 -77.8227 599.399L-77.9531 599.882ZM-39.5296 608.138L-39.608 608.632C-33.0373 609.674 -26.525 610.515 -20.0686 611.16L-20.0188 610.663L-19.9691 610.165C-26.4062 609.522 -32.8994 608.683 -39.4513 607.644L-39.5296 608.138ZM-0.441864 612.034L-0.461792 612.533C6.18213 612.798 12.7676 612.856 19.2976 612.713L19.2867 612.214L19.2758 611.714C12.7664 611.856 6.20145 611.798 -0.421951 611.534L-0.441864 612.034ZM38.8485 611.181L38.8903 611.679C45.4928 611.125 52.0396 610.367 58.534 609.413L58.4613 608.919L58.3886 608.424C51.9145 609.375 45.3883 610.13 38.8067 610.683L38.8485 611.181ZM77.8081 605.471L77.9107 605.96C84.3502 604.611 90.7397 603.071 97.0824 601.347L96.9513 600.865L96.8202 600.382C90.496 602.101 84.1255 603.637 77.7056 604.982L77.8081 605.471ZM115.772 595.175L115.93 595.65C122.161 593.576 128.349 591.329 134.496 588.915L134.314 588.45L134.131 587.984C127.999 590.391 121.828 592.633 115.615 594.701L115.772 595.175ZM152.404 580.825L152.609 581.281C158.578 578.593 164.512 575.752 170.414 572.766L170.188 572.32L169.963 571.874C164.074 574.853 158.153 577.687 152.198 580.369L152.404 580.825ZM187.546 563.074L187.79 563.51C193.485 560.326 199.153 557.01 204.795 553.571L204.535 553.144L204.274 552.717C198.642 556.15 192.986 559.46 187.302 562.637L187.546 563.074ZM221.198 542.584L221.473 543.002C226.909 539.428 232.325 535.743 237.722 531.954L237.435 531.545L237.147 531.135C231.758 534.919 226.351 538.598 220.924 542.166L221.198 542.584ZM253.465 519.951L253.764 520.352C258.972 516.477 264.166 512.51 269.347 508.456L269.039 508.062L268.731 507.668C263.555 511.717 258.368 515.68 253.167 519.55L253.465 519.951ZM284.489 495.693L284.806 496.08C289.832 491.969 294.848 487.78 299.857 483.52L299.533 483.139L299.209 482.758C294.205 487.014 289.193 491.199 284.173 495.306L284.489 495.693ZM314.484 470.201L314.814 470.577C319.697 466.281 324.575 461.921 329.451 457.504L329.115 457.134L328.779 456.763C323.907 461.177 319.033 465.533 314.154 469.826L314.484 470.201ZM343.673 443.772L344.013 444.139C348.783 439.706 353.552 435.223 358.323 430.694L357.979 430.332L357.634 429.969C352.866 434.496 348.099 438.976 343.332 443.406L343.673 443.772ZM372.243 416.663L372.59 417.023C377.275 412.494 381.964 407.925 386.658 403.321L386.307 402.964L385.957 402.607C381.265 407.21 376.578 411.777 371.895 416.304L372.243 416.663ZM400.369 389.087L400.721 389.442C405.348 384.849 409.983 380.226 414.626 375.577L414.272 375.224L413.918 374.87C409.276 379.518 404.643 384.14 400.016 388.732L400.369 389.087ZM428.212 361.221L428.567 361.573C433.162 356.944 437.768 352.294 442.385 347.626L442.03 347.275L441.674 346.923C437.057 351.59 432.452 356.24 427.857 360.869L428.212 361.221ZM455.918 333.226L456.274 333.578C460.863 328.935 465.465 324.279 470.082 319.615L469.726 319.263L469.371 318.911C464.754 323.576 460.152 328.232 455.563 332.875L455.918 333.226ZM483.618 305.251L483.973 305.604C488.582 300.965 493.207 296.321 497.85 291.676L497.496 291.323L497.143 290.969C492.499 295.615 487.873 300.259 483.264 304.899L483.618 305.251ZM511.46 277.409L511.812 277.764C516.46 273.152 521.128 268.542 525.816 263.939L525.466 263.582L525.116 263.226C520.426 267.83 515.757 272.441 511.107 277.054L511.46 277.409ZM539.564 249.826L539.912 250.185C544.619 245.622 549.347 241.069 554.099 236.53L553.754 236.168L553.409 235.807C548.655 240.348 543.925 244.902 539.216 249.467L539.564 249.826ZM568.048 222.628L568.39 222.992C573.172 218.502 577.978 214.029 582.811 209.576L582.472 209.209L582.133 208.841C577.298 213.295 572.489 217.771 567.706 222.263L568.048 222.628ZM597.019 195.946L597.354 196.318C602.226 191.923 607.127 187.553 612.056 183.211L611.726 182.836L611.395 182.46C606.463 186.805 601.559 191.178 596.684 195.575L597.019 195.946ZM626.578 169.918L626.904 170.297C631.883 166.023 636.892 161.78 641.934 157.573L641.613 157.189L641.293 156.805C636.248 161.016 631.235 165.262 626.252 169.539L626.578 169.918ZM656.819 144.687L657.134 145.076C662.233 140.948 667.366 136.858 672.533 132.811L672.225 132.417L671.917 132.024C666.745 136.075 661.608 140.168 656.505 144.299L656.819 144.687ZM687.827 120.409L688.129 120.808C693.362 116.852 698.631 112.942 703.938 109.081L703.643 108.677L703.349 108.272C698.037 112.137 692.763 116.051 687.526 120.01L687.827 120.409ZM719.674 97.2468L719.961 97.6568C725.338 93.902 730.754 90.1998 736.21 86.5535L735.932 86.1378L735.654 85.7221C730.192 89.3722 724.771 93.0783 719.388 96.8369L719.674 97.2468ZM752.42 75.3736L752.689 75.7952C758.216 72.272 763.784 68.8081 769.397 65.407L769.137 64.9794L768.878 64.5518C763.26 67.9569 757.684 71.4248 752.151 74.952L752.42 75.3736ZM786.103 54.9689L786.352 55.4026C792.031 52.1429 797.754 48.9491 803.522 45.8246L803.284 45.385L803.046 44.9453C797.27 48.0738 791.54 51.2717 785.854 54.5353L786.103 54.9689ZM820.74 36.2168L820.967 36.6624C826.793 33.6981 832.666 30.8057 838.587 27.9885L838.372 27.537L838.157 27.0855C832.228 29.9066 826.347 32.8029 820.514 35.7712L820.74 36.2168ZM856.29 19.3105L856.492 19.7678C862.467 17.1241 868.49 14.5579 874.563 12.0726L874.374 11.6099L874.185 11.1471C868.102 13.636 862.07 16.2059 856.087 18.8533L856.29 19.3105ZM892.715 4.41162L892.891 4.87966C895.971 3.72222 899.063 2.58572 902.169 1.47058L902 1L901.831 0.529416C898.721 1.64623 895.623 2.78442 892.539 3.94358L892.715 4.41162Z" fill="white"/>
</svg>
