<svg width="186" height="53" viewBox="0 0 186 53" fill="none" xmlns="http://www.w3.org/2000/svg">
<path d="M16.6905 17.2593H12.0476V31.8878H16.6905V17.2593Z" fill="white"/>
<path d="M25.7154 17.2592L26.0882 19.8354L26.0139 19.6287C26.5922 18.6509 27.3006 17.8798 28.1768 17.3347C29.0344 16.7895 30.079 16.5073 31.2908 16.5073C32.0926 16.5073 32.7825 16.6203 33.3979 16.8458C34.0134 17.0712 34.5168 17.3909 34.9454 17.8423C35.3744 18.275 35.6538 18.8388 35.803 19.5344L35.6352 19.5719C36.2507 18.6504 36.9962 17.9173 37.873 17.3534C38.7492 16.7895 39.6631 16.5073 40.6142 16.5073C42.0501 16.5073 43.2062 16.9212 44.0452 17.7293C44.9028 18.5379 45.3319 19.5907 45.3505 20.8882V31.8689H40.7448V22.8433C40.7262 22.2039 40.6142 21.6587 40.4464 21.2448C40.26 20.8314 39.8681 20.6054 39.216 20.5492C38.4699 20.5492 37.8172 20.8127 37.3138 21.3391C36.7918 21.8654 36.3999 22.5423 36.1577 23.3509C35.8965 24.1595 35.7849 25.0056 35.7849 25.8704V31.8684H31.1421V22.8427C31.1235 22.2034 31.0114 21.6582 30.7879 21.2443C30.5829 20.8309 30.1538 20.6049 29.5012 20.5487C28.7742 20.5487 28.1587 20.8122 27.6553 21.3385C27.1519 21.8649 26.7791 22.523 26.5178 23.3316C26.2565 24.1402 26.145 24.9675 26.145 25.8136V31.8684H21.4836V17.2586H25.7165L25.7154 17.2592Z" fill="white"/>
<path d="M59.2424 32.3014C58.3848 32.3014 57.5271 32.1322 56.7062 31.8125C55.8671 31.4928 55.1773 31.0227 54.6362 30.4213L54.7668 29.0488V38.9206H50.1426V16.9211H54.1328L54.804 19.7602L54.4312 18.7637C55.1773 18.1243 56.035 17.5792 56.9483 17.1653C57.8808 16.7326 58.9434 16.5259 60.1744 16.5259C61.5168 16.5259 62.7292 16.8456 63.7918 17.4849C64.8549 18.1243 65.694 19.0454 66.2903 20.2304C66.9058 21.4336 67.2042 22.8628 67.2042 24.5363C67.2042 26.2097 66.8686 27.6009 66.1788 28.7479C65.489 29.9136 64.5565 30.7972 63.3632 31.3991C62.17 32.001 60.8084 32.3014 59.2424 32.3014ZM58.3285 28.6162C59.0746 28.6162 59.7644 28.4469 60.3985 28.1085C61.0325 27.7701 61.5359 27.2999 61.9273 26.6793C62.3187 26.0587 62.5056 25.3631 62.5056 24.592C62.5056 23.7646 62.3378 23.0503 61.9836 22.4297C61.648 21.809 61.1817 21.3389 60.5849 20.9817C60.0066 20.6433 59.3544 20.4553 58.6455 20.4553C58.0301 20.4553 57.4709 20.5303 57.0046 20.7C56.5198 20.8692 56.1098 21.1134 55.7365 21.4331C55.3637 21.7528 55.0467 22.1662 54.7854 22.6551V26.2466C54.9718 26.7168 55.2145 27.1302 55.5501 27.4879C55.8857 27.8451 56.2771 28.1273 56.7619 28.3152C57.2468 28.5219 57.7693 28.6162 58.3285 28.6162Z" fill="white"/>
<path d="M70.8774 5.47021H75.5203V31.888H70.8774V5.47021Z" fill="white"/>
<path d="M87.4546 32.302C85.6831 32.302 84.1914 31.9636 82.9605 31.3054C81.7296 30.6286 80.7981 29.707 80.1455 28.5225C79.5114 27.338 79.1758 25.9843 79.1758 24.4421C79.1758 22.8999 79.5486 21.6404 80.3133 20.4559C81.0594 19.2714 82.0662 18.3311 83.3338 17.6167C84.6019 16.9211 86.0001 16.564 87.5481 16.564C89.6361 16.564 91.3328 17.1658 92.6758 18.3878C94.0182 19.6098 94.8759 21.3587 95.2858 23.6715L83.9859 27.2818L82.96 24.7436L91.1273 21.9606L90.1576 22.3933C89.9712 21.8101 89.6728 21.3025 89.2071 20.8704C88.7594 20.4377 88.0696 20.2122 87.1562 20.2122C86.4659 20.2122 85.8695 20.3815 85.3475 20.7011C84.8255 21.0208 84.4341 21.491 84.1537 22.0736C83.8739 22.6567 83.7432 23.3711 83.7432 24.1609C83.7432 25.0825 83.9116 25.8343 84.2472 26.455C84.5828 27.0756 85.0305 27.527 85.6082 27.8462C86.1865 28.1659 86.8201 28.3163 87.5285 28.3163C88.0324 28.3163 88.5353 28.2221 89.0016 28.0529C89.4864 27.8837 89.9532 27.6389 90.4189 27.3573L92.4698 30.8358C91.6865 31.2872 90.8666 31.6444 89.9712 31.9073C89.095 32.1708 88.2374 32.302 87.4541 32.302H87.4546Z" fill="white"/>
<path d="M102.894 17.2592L103.267 19.8354L103.193 19.6287C103.77 18.6509 104.479 17.8798 105.355 17.3347C106.213 16.7895 107.257 16.5073 108.469 16.5073C109.271 16.5073 109.961 16.6203 110.576 16.8458C111.192 17.0712 111.695 17.3909 112.124 17.8423C112.553 18.275 112.833 18.8388 112.982 19.5344L112.814 19.5719C113.429 18.6504 114.175 17.9173 115.052 17.3534C115.928 16.7895 116.842 16.5073 117.792 16.5073C119.229 16.5073 120.384 16.9212 121.223 17.7293C122.081 18.5379 122.51 19.5907 122.529 20.8882V31.8689H117.942V22.8433C117.922 22.2039 117.811 21.6587 117.643 21.2448C117.457 20.8314 117.065 20.6054 116.412 20.5492C115.666 20.5492 115.014 20.8127 114.51 21.3391C113.988 21.8654 113.597 22.5423 113.354 23.3509C113.093 24.1595 112.981 25.0056 112.981 25.8704V31.8684H108.338V22.8427C108.32 22.2034 108.208 21.6582 107.984 21.2443C107.779 20.8309 107.351 20.6049 106.698 20.5487C105.97 20.5487 105.355 20.8122 104.852 21.3385C104.348 21.8649 103.976 22.523 103.715 23.3316C103.453 24.1402 103.341 24.9675 103.341 25.8136V31.8684H98.6984V17.2586H102.894V17.2592Z" fill="white"/>
<path d="M134.481 32.302C132.709 32.302 131.218 31.9636 129.987 31.3054C128.756 30.6286 127.824 29.707 127.172 28.5225C126.538 27.338 126.202 25.9843 126.202 24.4421C126.202 22.8999 126.575 21.6404 127.34 20.4559C128.086 19.2714 129.093 18.3311 130.36 17.6167C131.628 16.9211 133.026 16.564 134.574 16.564C136.663 16.564 138.359 17.1658 139.702 18.3878C141.045 19.6098 141.902 21.3587 142.312 23.6715L131.031 27.2818L130.005 24.7436L138.172 21.9606L137.203 22.3933C137.017 21.8101 136.718 21.3025 136.252 20.8704C135.804 20.4377 135.114 20.2122 134.201 20.2122C133.511 20.2122 132.914 20.3815 132.392 20.7011C131.87 21.0208 131.479 21.491 131.199 22.0736C130.919 22.6567 130.789 23.3711 130.789 24.1609C130.789 25.0825 130.957 25.8343 131.292 26.455C131.628 27.0756 132.076 27.527 132.653 27.8462C133.231 28.1659 133.866 28.3163 134.574 28.3163C135.078 28.3163 135.581 28.2221 136.048 28.0529C136.532 27.8837 136.998 27.6389 137.465 27.3573L139.516 30.8358C138.732 31.2872 137.912 31.6444 137.017 31.9073C136.122 32.1708 135.283 32.302 134.482 32.302H134.481Z" fill="white"/>
<path d="M149.92 17.2589L150.293 19.8726L150.218 19.6471C150.722 18.7256 151.449 17.9925 152.382 17.4286C153.314 16.8647 154.452 16.5825 155.794 16.5825C157.137 16.5825 158.312 16.9959 159.225 17.8045C160.139 18.6131 160.624 19.6659 160.643 20.9634V31.9066H155.999V22.693C155.981 22.0536 155.813 21.5272 155.477 21.1326C155.161 20.7379 154.62 20.5494 153.874 20.5494C153.128 20.5494 152.55 20.7749 152.01 21.245C151.487 21.7152 151.077 22.3546 150.779 23.1632C150.499 23.9717 150.35 24.8928 150.35 25.9461V31.9066H145.707V17.2594H149.921L149.92 17.2589Z" fill="white"/>
<path d="M166.795 10.8286H171.438V17.1838H174.963V20.8316H171.438V31.8878H166.795V20.8503H164.539V17.1838H166.795V10.8286Z" fill="white"/>
<path d="M14.2964 9.09326L11.2769 12.1381L14.2964 15.1829L17.3159 12.1381L14.2964 9.09326Z" fill="white"/>
<path d="M169.435 46.5716V45.7015H170.799L171.352 44.1734L168.833 38.0718H169.957L171.873 42.8176H171.913L173.599 38.0718H174.693L172.426 44.1432L171.894 45.5698C171.774 45.8869 171.643 46.1332 171.503 46.3086C171.369 46.4841 171.141 46.5716 170.82 46.5716H169.435H169.435Z" fill="white"/>
<path d="M165.052 44.2647C164.517 44.2647 164.035 44.1367 163.607 43.88C163.186 43.617 162.852 43.2495 162.604 42.7772C162.363 42.305 162.242 41.7484 162.242 41.1075C162.242 40.4665 162.363 39.9 162.604 39.4278C162.852 38.9556 163.186 38.5911 163.607 38.3349C164.035 38.0788 164.517 37.9507 165.052 37.9507C165.474 37.9507 165.858 38.0314 166.206 38.1933C166.56 38.3485 166.858 38.5843 167.099 38.9014C167.346 39.2117 167.517 39.6064 167.611 40.0854H166.487C166.393 39.6876 166.216 39.3971 165.955 39.2154C165.701 39.0331 165.4 38.942 165.052 38.942C164.537 38.942 164.119 39.1378 163.798 39.5288C163.483 39.9198 163.326 40.4462 163.326 41.1075C163.326 41.7687 163.483 42.2878 163.798 42.6861C164.119 43.0771 164.537 43.2729 165.052 43.2729C165.42 43.2729 165.734 43.175 165.995 42.9792C166.263 42.7835 166.447 42.4664 166.548 42.028H167.641C167.554 42.5273 167.387 42.9423 167.14 43.2724C166.892 43.603 166.591 43.8524 166.237 44.0211C165.883 44.183 165.488 44.2642 165.053 44.2642L165.052 44.2647Z" fill="white"/>
<path d="M154.659 44.1433V38.0719H155.733V39.0533H155.773C155.947 38.7024 156.191 38.4327 156.505 38.2437C156.82 38.0547 157.191 37.9604 157.619 37.9604C158.047 37.9604 158.439 38.0682 158.773 38.2843C159.107 38.4936 159.368 38.7836 159.556 39.1543C159.744 39.5256 159.837 39.9504 159.837 40.4294V44.1428H158.753V40.6215C158.753 40.1019 158.619 39.6942 158.352 39.397C158.091 39.1002 157.723 38.9518 157.248 38.9518C156.774 38.9518 156.402 39.1002 156.135 39.397C155.873 39.6937 155.743 40.1019 155.743 40.6215V44.1428H154.66L154.659 44.1433Z" fill="white"/>
<path d="M149.658 44.2647C149.116 44.2647 148.631 44.1367 148.203 43.88C147.775 43.617 147.437 43.2495 147.19 42.7772C146.949 42.2982 146.828 41.7348 146.828 41.0871C146.828 40.4394 146.949 39.8933 147.19 39.4278C147.43 38.9556 147.758 38.5911 148.173 38.3349C148.588 38.0788 149.063 37.9507 149.598 37.9507C150.099 37.9507 150.544 38.0652 150.932 38.2948C151.327 38.5245 151.638 38.8546 151.866 39.2867C152.093 39.7183 152.207 40.2275 152.207 40.8148V41.3006H147.872C147.912 41.9145 148.092 42.4034 148.413 42.7678C148.735 43.1323 149.146 43.314 149.648 43.314C150.009 43.314 150.317 43.2229 150.571 43.0407C150.825 42.8584 150.996 42.609 151.082 42.292H152.187C152.106 42.7033 151.946 43.0578 151.705 43.3546C151.464 43.6446 151.17 43.8706 150.822 44.0325C150.474 44.1877 150.086 44.2653 149.658 44.2653V44.2647ZM147.921 40.4702H151.153C151.106 39.9708 150.942 39.583 150.661 39.3065C150.38 39.03 150.022 38.8915 149.587 38.8915C149.152 38.8915 148.798 39.0331 148.503 39.3164C148.209 39.5928 148.015 39.9776 147.921 40.4702Z" fill="white"/>
<path d="M141.612 46.6936C140.87 46.6936 140.251 46.5113 139.756 46.1474C139.261 45.7897 138.973 45.3107 138.893 44.7104H140.047C140.114 45.0342 140.284 45.2873 140.559 45.4695C140.833 45.6517 141.178 45.7428 141.592 45.7428C142.128 45.7428 142.545 45.5877 142.846 45.2774C143.154 44.9671 143.309 44.5453 143.309 44.0127V43.0312H143.268C143.121 43.3889 142.89 43.6654 142.576 43.8612C142.268 44.0502 141.904 44.1444 141.482 44.1444C140.974 44.1444 140.525 44.0163 140.137 43.7602C139.756 43.4972 139.458 43.1328 139.244 42.6673C139.03 42.2018 138.923 41.6624 138.923 41.048C138.923 40.4337 139.03 39.8942 139.244 39.4288C139.459 38.9633 139.756 38.6025 140.137 38.3463C140.525 38.0834 140.974 37.9517 141.482 37.9517C141.904 37.9517 142.268 38.0495 142.576 38.2453C142.89 38.4343 143.122 38.704 143.268 39.0549H143.309V38.0735H144.382V44.0637C144.382 44.8733 144.131 45.5143 143.63 45.9865C143.135 46.4587 142.462 46.6946 141.612 46.6946V46.6936ZM141.742 43.152C142.218 43.152 142.595 42.9969 142.876 42.6866C143.157 42.3762 143.298 41.9649 143.298 41.4521V40.6424C143.298 40.1296 143.154 39.7183 142.866 39.408C142.586 39.0976 142.211 38.9425 141.742 38.9425C141.214 38.9425 140.793 39.1346 140.478 39.5194C140.164 39.8969 140.006 40.4066 140.006 41.0475C140.006 41.6884 140.164 42.2013 140.478 42.5855C140.793 42.963 141.214 43.152 141.742 43.152Z" fill="white"/>
<path d="M133.58 44.2548C132.984 44.2548 132.5 44.0862 132.125 43.7488C131.757 43.4046 131.573 42.9631 131.573 42.4232C131.573 41.8499 131.757 41.4048 132.125 41.0877C132.5 40.7638 133.028 40.6019 133.71 40.6019H135.466V40.2983C135.466 39.8532 135.346 39.509 135.105 39.2664C134.871 39.017 134.54 38.892 134.112 38.892C133.757 38.892 133.463 38.9764 133.228 39.1451C133.001 39.307 132.85 39.5397 132.776 39.8433H131.673C131.773 39.2565 132.044 38.7942 132.486 38.4568C132.927 38.1194 133.475 37.9507 134.131 37.9507C134.874 37.9507 135.453 38.1532 135.867 38.5578C136.288 38.9623 136.499 39.5325 136.499 40.2676V44.1429H135.476V43.0907H135.435C135.282 43.4483 135.037 43.7316 134.703 43.9404C134.369 44.1497 133.993 44.2538 133.579 44.2538L133.58 44.2548ZM133.801 43.3442C134.115 43.3442 134.396 43.2703 134.644 43.1219C134.898 42.9735 135.098 42.7746 135.245 42.5247C135.393 42.2685 135.466 41.9853 135.466 41.675V41.4318H133.781C133.392 41.4318 133.095 41.5162 132.888 41.6849C132.687 41.8468 132.587 42.0759 132.587 42.3732C132.587 42.6705 132.697 42.9063 132.918 43.0813C133.139 43.2567 133.433 43.3442 133.801 43.3442H133.801Z" fill="white"/>
<path d="M124.178 44.1438V35.644H125.262V44.1438H124.178Z" fill="white"/>
<path d="M118.484 44.2548C117.888 44.2548 117.404 44.0862 117.029 43.7488C116.661 43.4046 116.477 42.9631 116.477 42.4232C116.477 41.8499 116.661 41.4048 117.029 41.0877C117.404 40.7638 117.932 40.6019 118.614 40.6019H120.37V40.2983C120.37 39.8532 120.25 39.509 120.009 39.2664C119.775 39.017 119.444 38.892 119.015 38.892C118.661 38.892 118.367 38.9764 118.132 39.1451C117.904 39.307 117.754 39.5397 117.68 39.8433H116.576C116.677 39.2565 116.948 38.7942 117.389 38.4568C117.831 38.1194 118.379 37.9507 119.034 37.9507C119.777 37.9507 120.355 38.1532 120.771 38.5578C121.192 38.9623 121.403 39.5325 121.403 40.2676V44.1429H120.379V43.0907H120.339C120.185 43.4483 119.941 43.7316 119.606 43.9404C119.272 44.1497 118.897 44.2538 118.483 44.2538L118.484 44.2548ZM118.705 43.3442C119.019 43.3442 119.3 43.2703 119.547 43.1219C119.801 42.9735 120.002 42.7746 120.149 42.5247C120.297 42.2685 120.37 41.9853 120.37 41.675V41.4318H118.685C118.296 41.4318 117.999 41.5162 117.792 41.6849C117.591 41.8468 117.491 42.0759 117.491 42.3732C117.491 42.6705 117.601 42.9063 117.822 43.0813C118.043 43.2567 118.337 43.3442 118.705 43.3442H118.705Z" fill="white"/>
<path d="M113.147 44.1436C112.84 44.1436 112.599 44.0629 112.425 43.901C112.251 43.7323 112.163 43.4829 112.163 43.1523V38.9428H111.14V38.0727H112.174V36.2515H113.237V38.0727H114.672V38.9428H113.248V43.2736H114.813V44.1436H113.147Z" fill="white"/>
<path d="M107.964 44.1432V38.0718H109.048V44.1432H107.964ZM108.506 37.2424C108.319 37.2424 108.158 37.1747 108.025 37.0398C107.891 36.905 107.824 36.743 107.824 36.554C107.824 36.365 107.891 36.2031 108.025 36.0683C108.158 35.9334 108.319 35.8657 108.506 35.8657C108.693 35.8657 108.854 35.9334 108.988 36.0683C109.121 36.2031 109.188 36.365 109.188 36.554C109.188 36.743 109.121 36.905 108.988 37.0398C108.854 37.1747 108.693 37.2424 108.506 37.2424Z" fill="white"/>
<path d="M102.377 46.6936C101.635 46.6936 101.016 46.5113 100.521 46.1474C100.026 45.7897 99.7384 45.3107 99.6583 44.7104H100.812C100.879 45.0342 101.05 45.2873 101.324 45.4695C101.598 45.6517 101.943 45.7428 102.357 45.7428C102.893 45.7428 103.311 45.5877 103.612 45.2774C103.919 44.9671 104.073 44.5453 104.073 44.0127V43.0312H104.033C103.886 43.3889 103.655 43.6654 103.341 43.8612C103.034 44.0502 102.669 44.1444 102.247 44.1444C101.738 44.1444 101.29 44.0163 100.903 43.7602C100.521 43.4972 100.223 43.1328 100.009 42.6673C99.7946 42.2018 99.6878 41.6624 99.6878 41.048C99.6878 40.4337 99.7946 39.8942 100.009 39.4288C100.223 38.9633 100.521 38.6025 100.903 38.3463C101.29 38.0834 101.739 37.9517 102.247 37.9517C102.669 37.9517 103.033 38.0495 103.341 38.2453C103.656 38.4343 103.887 38.704 104.033 39.0549H104.073V38.0735H105.147V44.0637C105.147 44.8733 104.897 45.5143 104.395 45.9865C103.899 46.4587 103.227 46.6946 102.377 46.6946V46.6936ZM102.508 43.152C102.983 43.152 103.361 42.9969 103.642 42.6866C103.923 42.3762 104.064 41.9649 104.064 41.4521V40.6424C104.064 40.1296 103.92 39.7183 103.632 39.408C103.351 39.0976 102.976 38.9425 102.508 38.9425C101.98 38.9425 101.558 39.1346 101.244 39.5194C100.929 39.8969 100.772 40.4066 100.772 41.0475C100.772 41.6884 100.929 42.2013 101.244 42.5855C101.558 42.963 101.98 43.152 102.508 43.152Z" fill="white"/>
<path d="M96.1014 44.1432V38.0718H97.1852V44.1432H96.1014ZM96.643 37.2424C96.4556 37.2424 96.2955 37.1747 96.1618 37.0398C96.0281 36.905 95.9609 36.743 95.9609 36.554C95.9609 36.365 96.0281 36.2031 96.1618 36.0683C96.2955 35.9334 96.4561 35.8657 96.643 35.8657C96.8299 35.8657 96.991 35.9334 97.1248 36.0683C97.258 36.2031 97.3251 36.365 97.3251 36.554C97.3251 36.743 97.258 36.905 97.1248 37.0398C96.991 37.1747 96.8304 37.2424 96.643 37.2424Z" fill="white"/>
<path d="M90.3154 44.2652C89.8141 44.2652 89.3757 44.1334 89.0014 43.8705C88.6265 43.6076 88.3358 43.24 88.1282 42.7677C87.9207 42.2887 87.8169 41.7358 87.8169 41.1084C87.8169 40.481 87.9207 39.9213 88.1282 39.449C88.3353 38.9768 88.6265 38.6092 89.0014 38.3463C89.3757 38.0833 89.8141 37.9516 90.3154 37.9516C91.1989 37.9516 91.8107 38.3192 92.152 39.0544H92.1923V35.644H93.2766V44.1438H92.2026V43.152H92.1623C91.8143 43.8939 91.1989 44.2652 90.3159 44.2652H90.3154ZM90.6066 43.2941C91.108 43.2941 91.4963 43.1353 91.7704 42.8188C92.0513 42.4949 92.1918 42.0732 92.1918 41.5541V40.6637C92.1918 40.1441 92.0513 39.726 91.7704 39.4089C91.4963 39.0851 91.108 38.9232 90.6066 38.9232C90.1053 38.9232 89.6762 39.1221 89.3623 39.5204C89.0545 39.9181 88.9002 40.4477 88.9002 41.1089C88.9002 41.7701 89.054 42.2997 89.3623 42.6974C89.6767 43.0952 90.0913 43.2946 90.6066 43.2946V43.2941Z" fill="white"/>
</svg>
