<svg width="62" height="99" viewBox="0 0 62 99" fill="none" xmlns="http://www.w3.org/2000/svg">
<path d="M46.5099 55.6602C46.745 56.5837 46.9297 57.5071 47.064 58.4641C47.0472 58.3466 47.0304 58.2458 47.0136 58.1283C47.2655 59.992 47.2991 61.906 47.0472 63.7696C47.064 63.6521 47.0808 63.5514 47.0976 63.4338C46.8961 64.9449 46.5099 66.4224 45.9223 67.8159C45.9727 67.7152 46.0063 67.6145 46.0567 67.5137C45.7712 68.1853 45.4522 68.8401 45.0661 69.4613C44.8814 69.7803 44.6631 70.0993 44.4448 70.4015C44.3441 70.5358 44.2434 70.6702 44.1427 70.8045C44.4113 70.4519 44.193 70.7373 44.1258 70.8213C44.0587 70.9052 43.9915 70.9892 43.9243 71.0563C43.4542 71.6272 42.917 72.1476 42.3629 72.6345C42.2286 72.7521 42.0775 72.8696 41.9432 72.9871C41.8592 73.0543 41.5738 73.2725 41.9264 73.0039C41.8424 73.0543 41.7753 73.1214 41.6914 73.1886C41.3723 73.4236 41.0366 73.6419 40.7008 73.8602C40.0628 74.2463 39.4247 74.5821 38.7364 74.8675C38.8371 74.8172 38.9378 74.7836 39.0385 74.7332C38.5516 74.9347 38.0648 75.1362 37.5779 75.3545C37.2421 75.5056 36.9231 75.6399 36.6713 75.8917C36.1004 76.429 36.2011 77.3524 36.7888 77.8057C37.091 78.0408 37.494 78.1079 37.8465 78.2087C38.451 78.3934 39.0553 78.6116 39.643 78.8635C39.5422 78.8131 39.4415 78.7795 39.3408 78.7292C40.9358 79.4175 42.4804 80.2738 43.8572 81.3148C43.8908 81.3483 43.9244 81.3651 43.9579 81.3987C43.6725 81.1804 43.79 81.2812 43.8572 81.3148C43.9411 81.3819 44.0083 81.4323 44.0922 81.4994C44.2433 81.617 44.3945 81.7513 44.5288 81.8688C44.7806 82.1039 45.0325 82.3389 45.2675 82.6076C45.385 82.7251 45.4858 82.8594 45.6033 82.9937C45.6537 83.0609 45.704 83.128 45.7544 83.1952C45.8048 83.2624 45.8888 83.3799 45.6537 83.0777C45.6873 83.128 45.7208 83.1616 45.7544 83.212C45.9559 83.4806 46.1574 83.7661 46.3253 84.0683C46.7618 84.7566 47.1144 85.4954 47.4502 86.2509C47.3998 86.1502 47.3662 86.0494 47.3159 85.9487C48.5247 88.8365 49.0787 91.9426 49.616 95.0151C49.7503 95.8378 49.9014 96.6605 50.0525 97.4832C50.1029 97.7686 50.3883 98.1044 50.6234 98.2387C50.8752 98.373 51.1439 98.4234 51.4293 98.3898C52.0505 98.3058 52.5039 97.7854 52.5207 97.1474C52.571 95.7538 52.6214 94.3603 52.6717 92.95C52.7221 91.6068 52.7221 90.2468 52.9068 88.9037C52.89 89.0212 52.8732 89.1219 52.8564 89.2395C53.0243 88.081 53.2761 86.9225 53.5784 85.7976C53.7295 85.2435 53.8974 84.6895 54.0652 84.1354C54.2164 83.6821 54.3507 83.212 54.5354 82.7587C54.485 82.8594 54.4514 82.9601 54.401 83.0609C54.6361 82.5236 54.9384 82.0199 55.2909 81.5498C55.3413 81.4827 55.3917 81.4155 55.442 81.3316C55.5596 81.1804 55.2237 81.6002 55.4084 81.3651C55.5259 81.214 55.6435 81.0797 55.761 80.9286C55.9793 80.66 56.2143 80.4081 56.4494 80.1563C56.9531 79.6358 57.4904 79.1321 58.0444 78.6452C58.1787 78.5277 58.313 78.4269 58.4473 78.3094C58.5145 78.2591 58.5817 78.2087 58.6489 78.1415C58.6824 78.1079 58.716 78.0744 58.7663 78.0576C58.716 78.0912 58.5146 78.2591 58.6657 78.1247C58.9343 77.9233 59.2197 77.7218 59.4883 77.5203C60.0424 77.1509 60.6132 76.7984 61.2344 76.5465C61.1337 76.5969 61.033 76.6305 60.9323 76.6808C60.9826 76.664 61.033 76.6473 61.0834 76.6137C61.3856 76.4961 61.671 76.3282 61.8389 76.0428C61.9732 75.791 62.0236 75.5224 61.99 75.2369C61.906 74.6157 61.3856 74.1456 60.7476 74.1456C60.4621 74.1456 60.1767 74.1288 59.9081 74.0952C60.0256 74.112 60.1263 74.1288 60.2439 74.1456C59.6898 74.0617 59.1357 73.9105 58.6152 73.6923C58.716 73.7426 58.8168 73.7762 58.9175 73.8266C58.5985 73.6923 58.2962 73.5412 58.0108 73.3565C57.8597 73.2725 57.7254 73.1718 57.5743 73.0879C57.5072 73.0375 57.4232 72.9871 57.356 72.9367C57.3224 72.92 57.2889 72.8864 57.2553 72.8696C57.2385 72.8528 57.2217 72.836 57.2049 72.836C57.0874 72.7353 57.3728 72.9703 57.356 72.9535C56.7852 72.4834 56.2479 71.9797 55.7442 71.4257C55.6267 71.2746 55.4924 71.1403 55.3749 70.9892C55.3245 70.922 55.2574 70.838 55.207 70.7709C55.0727 70.603 55.3413 70.9388 55.2909 70.8716C55.2574 70.8213 55.2238 70.7877 55.1902 70.7373C54.9383 70.4183 54.72 70.0825 54.485 69.7467C54.0149 69.0416 53.5952 68.3028 53.209 67.5473C52.7557 66.6742 52.336 65.7676 51.9498 64.8609C52.0002 64.9617 52.0337 65.0624 52.0841 65.1632C50.9592 62.4936 50.0861 59.7065 49.3642 56.8859C49.1963 56.2311 49.0452 55.5931 48.8941 54.9383C48.743 54.3003 47.9706 53.8637 47.3494 54.0652C46.7114 54.3339 46.342 54.9719 46.5099 55.6602C46.8625 57.1881 47.2487 58.716 47.702 60.227C48.2225 61.9899 48.827 63.7528 49.5153 65.4654C50.2541 67.2619 51.0768 69.0416 52.1177 70.6869C53.0411 72.1644 54.1492 73.6083 55.5092 74.6997C56.164 75.2201 56.8524 75.707 57.6247 76.0428C58.4809 76.4122 59.3205 76.6472 60.2607 76.7312C60.4454 76.748 60.63 76.748 60.7979 76.748C60.6804 75.9253 60.5796 75.1026 60.4621 74.2799C59.0854 74.8172 57.8933 75.6567 56.7516 76.5801C55.6099 77.5035 54.5354 78.5445 53.6288 79.703C53.1755 80.2738 52.7557 80.8447 52.4199 81.4994C52.0337 82.2718 51.7819 83.1112 51.5301 83.9339C50.9257 85.9319 50.4387 87.9635 50.2876 90.0454C50.2036 91.2206 50.1869 92.4127 50.1533 93.588C50.1197 94.7968 50.0693 95.9889 50.0357 97.1977C50.8584 97.0802 51.6812 96.9795 52.5038 96.8619C51.8994 93.5208 51.4461 90.1293 50.3715 86.9057C49.8175 85.2771 49.1291 83.6485 48.1217 82.2382C47.6181 81.5162 47.0473 80.8447 46.4092 80.2402C45.6705 79.5686 44.8478 78.9642 44.0083 78.427C43.0849 77.8225 42.1111 77.2853 41.1037 76.8319C40.5329 76.5633 39.9452 76.3282 39.3408 76.11C38.8539 75.9421 38.367 75.8078 37.8801 75.6567C37.9808 75.707 38.0816 75.7406 38.1823 75.791C38.3334 75.9421 38.4677 76.0764 38.6188 76.2275C38.6692 76.3282 38.7028 76.429 38.7532 76.5297C38.77 76.6473 38.7867 76.748 38.8035 76.8655C38.7867 76.983 38.77 77.0838 38.7532 77.2013C38.7028 77.302 38.6692 77.4028 38.6188 77.5035C38.5181 77.6546 38.3838 77.8393 38.2327 77.9065C38.2663 77.8897 38.283 77.8729 38.3166 77.8561C38.4006 77.8057 38.4845 77.7722 38.5685 77.7218C38.8035 77.6043 39.0553 77.5035 39.3072 77.4028C39.2065 77.4531 39.1058 77.4867 39.005 77.5371C39.6934 77.2517 40.3985 76.9663 41.0701 76.6137C41.8424 76.2107 42.5644 75.7406 43.2528 75.2201C44.7134 74.0952 45.9727 72.7689 46.9633 71.2242C48.8773 68.286 49.7168 64.7266 49.7336 61.2512C49.7336 59.1693 49.4481 57.0706 48.9444 55.0558C48.7765 54.4178 48.0378 53.9645 47.3998 54.1828C46.7282 54.3339 46.3252 54.9719 46.5099 55.6602Z" fill="#4C628A"/>
<path d="M8.24362 1.58212C8.37794 2.20334 8.49548 2.82455 8.59622 3.44577C8.64659 3.74798 8.69694 4.06698 8.74731 4.38598C8.7641 4.48672 8.848 4.95684 8.78084 4.58747C8.81442 4.77215 8.83127 4.95683 8.84806 5.12473C8.99917 6.40074 9.1167 7.69354 9.18386 8.98634C9.31817 11.5887 9.30132 14.2079 9.11663 16.7935C9.06626 17.4315 9.01591 18.0695 8.96554 18.7243C8.93196 19.0097 8.91517 19.3119 8.88159 19.5974C8.8648 19.7317 8.84805 19.866 8.83126 20.0171C8.83126 20.0843 8.81445 20.1514 8.81445 20.2018C8.79766 20.3025 8.81447 20.2522 8.83126 20.0507C8.83126 20.1011 8.81445 20.1514 8.81445 20.2018C8.66335 21.2763 8.42829 22.3341 8.14287 23.375C7.99176 23.8955 7.82386 24.416 7.63918 24.9197C7.53844 25.1715 7.45446 25.4234 7.35372 25.6752C7.33693 25.7424 7.30337 25.7927 7.28658 25.8599C7.38732 25.5409 7.33697 25.7256 7.30339 25.8095C7.23623 25.9438 7.18584 26.0949 7.11868 26.2293C6.66536 27.2198 6.14489 28.1601 5.52367 29.0667C5.35577 29.3186 5.17114 29.5704 4.98645 29.8055C4.93608 29.8726 4.83531 29.9566 5.03679 29.7383C4.98642 29.8055 4.91926 29.8726 4.86889 29.9398C4.76816 30.0573 4.68417 30.1748 4.58344 30.2924C4.19728 30.7457 3.79436 31.1654 3.35783 31.5851C3.13956 31.7866 2.9213 31.9881 2.68624 32.1896C2.56872 32.2903 2.43438 32.3743 2.33365 32.475C2.55191 32.2567 2.46801 32.3743 2.38406 32.4414C2.3169 32.4918 2.2497 32.5422 2.16575 32.5925C1.67885 32.9451 1.15842 33.2809 0.621154 33.5663C0.151045 33.8182 -0.117655 34.473 0.0502414 34.9935C0.1174 35.1949 0.218203 35.3964 0.36931 35.5475C0.553995 35.749 0.973703 35.9505 1.25913 35.9169C2.38403 35.7826 3.50895 35.7154 4.63385 35.749C5.18791 35.7658 5.72515 35.7993 6.2792 35.8497C6.41352 35.8665 6.56463 35.8833 6.69894 35.9001C6.79968 35.9169 7.30337 35.984 6.86684 35.9169C7.15226 35.9672 7.4377 36.0008 7.72313 36.0512C8.81445 36.2359 9.90574 36.5045 10.9635 36.8403C11.5008 37.0082 12.038 37.1929 12.5585 37.4112C12.676 37.4615 12.7768 37.4951 12.8943 37.5455C12.9615 37.579 13.0286 37.5958 13.0958 37.6294C12.7432 37.4951 12.9782 37.579 13.0622 37.6126C13.3308 37.7302 13.5827 37.8477 13.8513 37.9652C14.8755 38.4521 15.8661 38.9894 16.8063 39.5938C17.2764 39.896 17.7298 40.1982 18.1663 40.534C18.2838 40.618 18.4013 40.7019 18.5188 40.7859C18.5692 40.8362 18.6363 40.8698 18.6867 40.9202C18.4181 40.7187 18.5356 40.8027 18.6028 40.853C18.8546 41.0545 19.0897 41.2392 19.3248 41.4407C20.1642 42.1458 20.9701 42.9181 21.7088 43.724C22.095 44.1438 22.4644 44.5803 22.8338 45.0336C22.9009 45.1344 22.9849 45.2183 23.052 45.3191C22.7834 45.0001 23.1024 45.3862 23.1528 45.4702C23.3207 45.7052 23.4886 45.9403 23.6565 46.1753C24.3616 47.1995 24.9997 48.274 25.5369 49.3821C25.6712 49.6676 25.8055 49.953 25.923 50.2216C26.0238 50.4567 25.8055 49.9362 25.9062 50.188C25.9398 50.272 25.9734 50.3727 26.007 50.4567C26.0574 50.591 26.1077 50.7253 26.1581 50.8596C26.3931 51.4641 26.5946 52.0853 26.7625 52.7065C26.9472 53.3445 27.6692 53.7978 28.3072 53.5795C28.6094 53.4788 28.9116 53.2941 29.0627 53.0087C29.2306 52.6897 29.2474 52.3875 29.197 52.0349C29.197 52.0181 29.1466 51.6991 29.1802 51.9006C29.2138 52.1021 29.1635 51.7998 29.1635 51.7831C29.1467 51.6655 29.1299 51.548 29.1131 51.4305C29.0795 51.1618 29.0459 50.8932 29.0291 50.6246C28.9955 50.2048 28.962 49.7851 28.9452 49.3653C28.9284 48.7106 28.9452 48.039 28.9284 47.3842C28.9284 46.5615 28.878 45.7556 28.7941 44.9329C28.7269 44.3117 28.643 43.6905 28.5591 43.0692C28.5087 42.6999 28.4583 42.3305 28.408 41.9444C28.3912 41.8772 28.3911 41.81 28.3743 41.7429C28.324 41.4239 28.4079 41.9443 28.3743 41.7429C28.3576 41.5582 28.324 41.3903 28.3072 41.2056C28.1561 40.0135 28.0218 38.8047 27.9882 37.5958C27.9714 36.9746 27.9714 36.3702 28.0218 35.749C28.0385 35.4636 28.0553 35.1613 28.1057 34.8759C28.0385 35.2285 28.1393 34.708 28.1393 34.6409C28.1729 34.473 28.1897 34.3219 28.2233 34.154C28.324 33.6335 28.4751 33.1298 28.643 32.6429C28.7102 32.4246 28.7941 32.2064 28.878 31.9881C28.9116 31.8874 28.9452 31.7866 28.9956 31.7027C29.0124 31.6355 29.0459 31.5851 29.0627 31.518C29.1803 31.2494 29.0124 31.6523 29.0627 31.5348C29.4657 30.6449 29.919 29.7887 30.4562 28.9828C30.6074 28.7645 30.8256 28.5294 30.9599 28.2944C30.9431 28.3112 30.7753 28.5294 30.9096 28.3616C30.96 28.2944 31.0103 28.244 31.0607 28.1769C31.1446 28.0761 31.2286 27.9754 31.3125 27.8747C31.6651 27.4717 32.0345 27.0855 32.4375 26.7162C32.6389 26.5315 32.8572 26.3468 33.0754 26.1621C33.2433 26.0278 33.0251 26.2125 33.0083 26.2125C33.0755 26.1789 33.1258 26.1117 33.193 26.0782C33.3105 25.9942 33.4281 25.9103 33.5288 25.8263C33.9821 25.5073 34.4522 25.2387 34.9559 24.9868C35.426 24.7518 35.6946 24.0634 35.5267 23.5597C35.3421 23.0057 34.8887 22.6699 34.3179 22.6363C33.7302 22.6027 33.1426 22.5523 32.5549 22.4852C32.4206 22.4684 32.2863 22.4516 32.152 22.4348C32.0849 22.4348 32.0177 22.4012 31.9505 22.4012C32.2863 22.3845 32.068 22.418 31.9673 22.4012C31.6651 22.3509 31.3629 22.3173 31.0775 22.2669C29.9358 22.0654 28.8109 21.8136 27.7196 21.4946C27.1655 21.3267 26.6282 21.1588 26.0909 20.9573C25.8391 20.8566 25.5872 20.7726 25.3186 20.6719C25.285 20.6551 24.9325 20.5208 24.9325 20.5208C24.9828 20.5376 25.0332 20.5712 25.0836 20.588C25.0332 20.5712 24.9828 20.5376 24.9325 20.5208C24.8653 20.4872 24.7814 20.4536 24.7142 20.4201C23.6565 19.9499 22.6491 19.4127 21.6753 18.7915C21.1884 18.4725 20.7015 18.1535 20.2482 17.8009C20.1978 17.7673 20.1642 17.7337 20.1138 17.7001C20.1642 17.7505 20.3993 17.9016 20.1138 17.7001C20.0131 17.6162 19.8956 17.5323 19.7948 17.4483C19.5598 17.2636 19.3415 17.0621 19.1233 16.8607C18.7035 16.4745 18.2838 16.0715 17.8976 15.6518C17.4947 15.2153 17.1421 14.7452 16.7559 14.3086C16.991 14.5773 16.7056 14.2415 16.6552 14.1575C16.5713 14.04 16.4873 13.9393 16.4034 13.8218C16.2187 13.5699 16.0508 13.3181 15.8829 13.0662C15.5471 12.5625 15.2449 12.042 14.9427 11.5216C14.355 10.4806 13.8345 9.40608 13.3476 8.29797C13.3309 8.2476 13.2973 8.19723 13.2805 8.14686C13.2637 8.09649 13.2302 8.04612 13.2134 7.99575C13.2805 8.16364 13.2973 8.18044 13.2469 8.06291C13.1797 7.9118 13.1126 7.7439 13.0455 7.59279C12.9279 7.29058 12.8104 6.98838 12.6929 6.68617C12.4578 6.06495 12.2227 5.42694 12.0045 4.80572C11.5512 3.51292 11.1314 2.22012 10.7116 0.927325C10.5102 0.306109 9.82185 -0.163992 9.16705 0.0542734C8.49547 0.238959 8.02536 0.910539 8.24362 1.58212C9.75469 6.3 11.3329 11.169 14.2711 15.2153C15.7654 17.2804 17.5619 19.0601 19.6774 20.5208C21.6753 21.8975 23.9083 22.9385 26.2085 23.694C28.8277 24.5503 31.5644 25.0204 34.3179 25.1715C34.0996 24.3824 33.8981 23.6101 33.6799 22.821C29.8686 24.7182 27.2159 28.4959 26.0574 32.5422C25.3523 35.0102 25.3858 37.5791 25.6712 40.0975C25.7552 40.8027 25.8391 41.491 25.9399 42.1962C25.9566 42.3641 25.9902 42.5152 26.007 42.6831C26.0238 42.7502 26.0238 42.8174 26.0406 42.8846C26.091 43.2036 26.007 42.6831 26.0406 42.9014C26.091 43.2204 26.1245 43.5562 26.1749 43.8752C26.2924 44.8657 26.4099 45.8563 26.4267 46.8469C26.4435 47.6024 26.4268 48.358 26.4435 49.1135C26.4771 50.3056 26.6114 51.4976 26.7793 52.6897C27.5852 52.4714 28.3911 52.2364 29.2138 52.0181C27.921 47.4513 25.2347 43.3211 21.7088 40.1814C18.183 37.025 13.8178 34.7248 9.18386 33.7678C6.59826 33.2305 3.91192 33.0626 1.29274 33.3984C1.511 34.1875 1.71245 34.9599 1.93071 35.749C6.06096 33.4824 8.84801 29.4025 10.3087 25.0036C11.0642 22.7202 11.4001 20.3529 11.5847 17.952C11.803 15.2992 11.8702 12.6465 11.7694 9.99372C11.6519 6.9548 11.3329 3.91587 10.7116 0.944111C10.5773 0.306105 9.78827 -0.130416 9.16705 0.0710589C8.4451 0.255745 8.1093 0.89375 8.24362 1.58212Z" fill="#4C628A"/>
</svg>
