<svg width="32" height="35" viewBox="0 0 32 35" fill="none" xmlns="http://www.w3.org/2000/svg">
<path fill-rule="evenodd" clip-rule="evenodd" d="M10.8722 32.611C7.91212 31.7794 4.81305 31.3599 1.80674 30.9756C1.15923 30.8951 0.558061 31.3447 0.51181 31.978C0.419308 32.6119 0.882087 33.1916 1.48335 33.2721C4.39715 33.6421 7.40318 34.038 10.2245 34.8385C10.8257 35.0121 11.4735 34.6547 11.6585 34.0398C11.8435 33.4254 11.4734 32.7851 10.8722 32.611Z" fill="#4C628A"/>
<path fill-rule="evenodd" clip-rule="evenodd" d="M19.8444 20.8217C15.0806 15.9551 9.71551 11.7149 5.04418 6.71768C4.62792 6.25097 3.88791 6.22597 3.4254 6.66165C2.96289 7.0978 2.91682 7.8312 3.37933 8.29791C8.05066 13.3095 13.4158 17.5636 18.1796 22.4445C18.6421 22.9001 19.3819 22.9066 19.8444 22.4584C20.2607 22.0107 20.3069 21.2773 19.8444 20.8217Z" fill="#4C628A"/>
<path fill-rule="evenodd" clip-rule="evenodd" d="M28.7715 2.10269C28.9102 4.88813 29.0487 7.67356 29.1875 10.4595C29.1875 11.0975 29.7427 11.5901 30.3903 11.5591C31.0378 11.5276 31.5 10.9845 31.5 10.346C31.3613 7.55596 31.2228 4.76635 31.084 1.97675C31.0378 1.33873 30.4827 0.849338 29.8352 0.884064C29.2339 0.918789 28.7252 1.46514 28.7715 2.10269Z" fill="#4C628A"/>
</svg>
