<svg width="208" height="192" viewBox="0 0 208 192" fill="none" xmlns="http://www.w3.org/2000/svg">
<path d="M198.013 91.4726C194.612 79.265 187.302 68.2794 177.641 60.1072C167.919 51.8985 155.957 46.4852 143.252 45.2029C130.956 43.9626 118.36 46.6662 107.414 52.332C101.935 55.1612 96.8371 58.7835 92.3759 63.0496C87.8804 67.3455 83.8792 72.3846 81.0704 77.946C78.1788 83.6754 76.4477 90.3754 78.243 96.7274C80.161 103.436 84.6085 109.422 90.0799 113.68C95.6255 117.981 102.282 121.138 109.261 122.116C112.359 122.548 115.518 122.651 118.565 121.901C121.277 121.238 123.904 120.041 126.234 118.5C130.61 115.619 134.882 111.024 134.904 105.464C134.914 102.6 133.715 99.7213 132.459 97.1925C130.994 94.2563 129.126 91.4652 126.916 89.0553C124.735 86.6797 122.001 84.7604 119.348 82.9563C116.394 80.9571 113.316 79.1678 110.12 77.5763C103.734 74.4128 96.9443 72.0445 89.9603 70.5958C83.1414 69.1781 75.9893 68.4641 69.0345 69.0515C62.333 69.6054 55.8489 71.5394 49.8039 74.4507C36.3487 80.9166 25.8303 91.891 16.9366 103.644C14.635 106.686 12.4323 109.786 10.2716 112.929C9.82719 113.566 10.1455 114.522 10.7756 114.895C11.4797 115.312 12.298 115.029 12.7424 114.391C21.0459 102.339 30.2336 90.3435 42.4566 82.0135C47.6853 78.452 53.3881 75.555 59.4569 73.7589C65.683 71.9225 72.0404 71.4986 78.4989 71.9187C91.9996 72.7875 105.317 77.2351 116.65 84.612C119.252 86.3031 121.937 88.1094 124.136 90.3126C126.227 92.4179 127.95 94.8897 129.369 97.4815C130.598 99.7445 131.915 102.509 132.018 105.04C132.117 107.268 131.272 109.287 129.988 111.146C127.151 115.205 122.241 118.172 117.409 119.232C114.643 119.846 111.618 119.657 108.808 119.161C105.515 118.58 102.308 117.515 99.315 116.061C93.3912 113.187 88.0753 109.006 84.4871 103.427C82.7528 100.749 81.317 97.7632 80.6905 94.6226C80.1321 91.7893 80.3538 88.8506 81.0416 86.0544C82.4775 80.2474 85.7507 74.9442 89.5206 70.3521C93.2269 65.8393 97.6159 61.8641 102.482 58.6051C112.148 52.1146 123.597 48.2482 135.25 47.8401C147.247 47.4177 159.019 50.8672 169.096 57.3504C179.135 63.8115 187.31 73.1399 192.254 84.0088C193.457 86.656 194.44 89.3907 195.22 92.1882C195.738 93.9629 198.511 93.2523 198.013 91.4726Z" fill="#A99BFF"/>
<path d="M4.87325 102.291C5.0046 102.436 5.11631 102.585 5.24034 102.742C5.16345 102.647 5.09389 102.539 5.017 102.443C5.77907 103.495 6.2983 104.703 6.8198 105.88C7.3761 107.11 7.91271 108.345 8.44202 109.593C8.73919 110.303 9.02903 111.025 9.31888 111.747C9.26898 111.634 9.23143 111.529 9.18884 111.403C9.5286 112.239 9.82169 113.096 10.1811 113.926C10.6106 114.948 11.6219 115.664 12.7541 115.583C13.5564 115.524 14.3353 115.251 15.1271 115.069C15.8475 114.895 16.573 114.741 17.2962 114.618C18.1177 114.471 18.9442 114.343 19.7562 114.239C19.6331 114.25 19.5224 114.268 19.3921 114.291C21.6262 114.012 23.8663 113.92 26.1197 114.003C26.7552 114.029 27.4029 114.062 28.0557 114.115C28.4007 114.152 28.8205 113.95 29.0628 113.71C29.3248 113.464 29.5218 113.047 29.5025 112.685C29.4831 112.323 29.375 111.942 29.0977 111.678C28.808 111.407 28.4699 111.273 28.0733 111.239C23.9644 110.908 19.8195 111.174 15.7961 111.995C15.2476 112.104 14.7042 112.233 14.1608 112.362C13.6298 112.498 13.0891 112.678 12.5429 112.755C12.666 112.745 12.7767 112.727 12.907 112.704C12.7643 112.719 12.6289 112.723 12.4688 112.711C12.5896 112.733 12.7177 112.742 12.8385 112.763C12.7301 112.749 12.629 112.723 12.5352 112.684C12.6537 112.737 12.7721 112.791 12.898 112.832C12.8165 112.8 12.73 112.749 12.6632 112.693C12.7671 112.771 12.871 112.849 12.9676 112.94C12.8884 112.876 12.8289 112.808 12.7694 112.739C12.8463 112.835 12.9159 112.943 12.9928 113.038C12.8637 112.862 12.7739 112.675 12.6915 112.476C12.7414 112.589 12.7789 112.695 12.8215 112.82C11.5069 109.489 10.2119 106.153 8.64433 102.939C8.19566 102.006 7.66601 101.125 6.9818 100.336C6.74382 100.062 6.30458 99.9019 5.95737 99.8965C5.61016 99.8912 5.18758 100.041 4.95027 100.301C4.35763 100.851 4.35014 101.681 4.87325 102.291Z" fill="#A99BFF"/>
</svg>
