<svg width="32" height="53" viewBox="0 0 32 53" fill="none" xmlns="http://www.w3.org/2000/svg">
<path d="M12.8768 1.9486C13.1553 3.04272 13.3742 4.13685 13.5333 5.27076C13.5134 5.13151 13.4935 5.01215 13.4736 4.8729C13.772 7.08103 13.8118 9.34883 13.5134 11.557C13.5333 11.4177 13.5531 11.2984 13.573 11.1591C13.3343 12.9495 12.8768 14.7001 12.1805 16.3512C12.2402 16.2318 12.28 16.1125 12.3397 15.9931C12.0015 16.7889 11.6236 17.5647 11.166 18.3007C10.9472 18.6787 10.6886 19.0567 10.43 19.4147C10.3106 19.5739 10.1913 19.733 10.0719 19.8922C10.3902 19.4744 10.1316 19.8126 10.052 19.9121C9.97245 20.0115 9.89283 20.111 9.81326 20.1906C9.25626 20.8669 8.61972 21.4836 7.96325 22.0605C7.8041 22.1998 7.62506 22.339 7.46592 22.4783C7.36645 22.5578 7.02825 22.8164 7.44601 22.4982C7.34654 22.5578 7.26699 22.6374 7.16752 22.717C6.78955 22.9955 6.39171 23.2541 5.99385 23.5127C5.23791 23.9702 4.48194 24.3681 3.66632 24.7063C3.78568 24.6466 3.905 24.6068 4.02436 24.5471C3.44746 24.7859 2.87062 25.0246 2.29372 25.2832C1.89586 25.4622 1.51791 25.6214 1.21951 25.9198C0.54315 26.5563 0.66245 27.6505 1.35871 28.1876C1.71678 28.4661 2.19427 28.5456 2.61203 28.665C3.32818 28.8838 4.04427 29.1424 4.74053 29.4408C4.62117 29.3812 4.50185 29.3414 4.38249 29.2817C6.27233 30.0973 8.10248 31.1119 9.73371 32.3452C9.7735 32.385 9.8133 32.4049 9.85309 32.4447C9.5149 32.1861 9.65414 32.3054 9.73371 32.3452C9.83317 32.4248 9.91273 32.4845 10.0122 32.564C10.1912 32.7033 10.3703 32.8624 10.5294 33.0017C10.8278 33.2802 11.1262 33.5587 11.4047 33.877C11.544 34.0162 11.6633 34.1754 11.8026 34.3345C11.8622 34.4141 11.9219 34.4937 11.9816 34.5732C12.0413 34.6528 12.1408 34.7921 11.8623 34.434C11.9021 34.4937 11.9418 34.5335 11.9816 34.5931C12.2203 34.9114 12.4591 35.2496 12.658 35.6077C13.1752 36.4233 13.5929 37.2986 13.9908 38.1938C13.9311 38.0744 13.8914 37.9551 13.8317 37.8357C15.264 41.2573 15.9204 44.9375 16.557 48.578C16.7161 49.5527 16.8952 50.5275 17.0742 51.5023C17.1339 51.8404 17.4721 52.2383 17.7506 52.3974C18.049 52.5566 18.3673 52.6163 18.7055 52.5765C19.4415 52.477 19.9787 51.8603 19.9986 51.1044C20.0582 49.4533 20.1179 47.8021 20.1776 46.1311C20.2372 44.5397 20.2372 42.9283 20.4561 41.3369C20.4362 41.4761 20.4163 41.5955 20.3964 41.7347C20.5953 40.3621 20.8937 38.9895 21.2518 37.6567C21.4308 37.0002 21.6297 36.3437 21.8287 35.6873C22.0077 35.1502 22.1669 34.5931 22.3857 34.056C22.326 34.1754 22.2862 34.2947 22.2265 34.4141C22.505 33.7775 22.8632 33.1807 23.2809 32.6237C23.3406 32.5442 23.4002 32.4646 23.4599 32.3651C23.5992 32.1861 23.2013 32.6834 23.4201 32.4049C23.5594 32.2259 23.6986 32.0667 23.8379 31.8877C24.0965 31.5694 24.375 31.271 24.6535 30.9726C25.2503 30.3559 25.8869 29.7591 26.5434 29.1822C26.7025 29.043 26.8616 28.9236 27.0208 28.7844C27.1003 28.7247 27.1799 28.665 27.2595 28.5854C27.2993 28.5456 27.339 28.5059 27.3987 28.486C27.339 28.5257 27.1004 28.7247 27.2794 28.5655C27.5977 28.3268 27.9359 28.0881 28.2542 27.8494C28.9106 27.4117 29.587 26.994 30.323 26.6956C30.2037 26.7553 30.0844 26.7951 29.965 26.8547C30.0247 26.8348 30.0843 26.8149 30.144 26.7752C30.5021 26.6359 30.8403 26.437 31.0392 26.0988C31.1983 25.8004 31.258 25.4821 31.2182 25.1439C31.1188 24.4079 30.5021 23.8509 29.7462 23.8509C29.408 23.8509 29.0698 23.831 28.7515 23.7912C28.8908 23.8111 29.0101 23.831 29.1494 23.8509C28.4929 23.7514 27.8364 23.5724 27.2197 23.3138C27.3391 23.3734 27.4585 23.4132 27.5778 23.4729C27.1999 23.3138 26.8417 23.1347 26.5035 22.9159C26.3245 22.8164 26.1654 22.6971 25.9864 22.5976C25.9068 22.5379 25.8073 22.4783 25.7277 22.4186C25.6879 22.3987 25.6481 22.3589 25.6083 22.339C25.5884 22.3191 25.5686 22.2992 25.5487 22.2992C25.4094 22.1799 25.7476 22.4584 25.7277 22.4385C25.0514 21.8815 24.4148 21.2847 23.818 20.6282C23.6787 20.4492 23.5196 20.29 23.3804 20.111C23.3207 20.0314 23.2411 19.9319 23.1814 19.8524C23.0223 19.6534 23.3406 20.0513 23.2809 19.9717C23.2411 19.9121 23.2013 19.8723 23.1615 19.8126C22.8631 19.4346 22.6045 19.0368 22.326 18.6389C21.769 17.8034 21.2717 16.9281 20.8142 16.0329C20.2771 14.9985 19.7797 13.9242 19.3222 12.85C19.3819 12.9694 19.4216 13.0887 19.4813 13.2081C18.1485 10.0451 17.114 6.74284 16.2586 3.4008C16.0597 2.62497 15.8807 1.86904 15.7016 1.09321C15.5226 0.337276 14.6075 -0.179958 13.8714 0.0587585C13.1155 0.377048 12.6778 1.13298 12.8768 1.9486C13.2945 3.75887 13.7521 5.56915 14.2892 7.35953C14.9059 9.4483 15.6221 11.5371 16.4377 13.5662C17.313 15.6947 18.2878 17.8034 19.5211 19.7529C20.6153 21.5035 21.9281 23.2143 23.5395 24.5073C24.3153 25.124 25.1309 25.7009 26.046 26.0988C27.0606 26.5364 28.0553 26.8149 29.1693 26.9144C29.3881 26.9343 29.6069 26.9343 29.8058 26.9343C29.6665 25.9596 29.5472 24.9848 29.4079 24.01C27.7767 24.6466 26.3643 25.6413 25.0115 26.7354C23.6588 27.8295 22.3857 29.0629 21.3115 30.4355C20.7744 31.1119 20.277 31.7882 19.8792 32.564C19.4216 33.4791 19.1233 34.4738 18.8249 35.4485C18.1087 37.8158 17.5318 40.2229 17.3527 42.6896C17.2533 44.0821 17.2334 45.4945 17.1936 46.8871C17.1538 48.3194 17.0941 49.7318 17.0543 51.1641C18.0291 51.0248 19.0039 50.9055 19.9786 50.7662C19.2625 46.8075 18.7253 42.7891 17.4522 38.9696C16.7957 37.04 15.9801 35.1104 14.7865 33.4393C14.1897 32.5839 13.5134 31.7882 12.7575 31.0721C11.8822 30.2763 10.9074 29.5602 9.91273 28.9236C8.81861 28.2075 7.66485 27.5709 6.47127 27.0338C5.7949 26.7155 5.09864 26.437 4.38249 26.1784C3.80559 25.9794 3.22866 25.8203 2.65176 25.6413C2.77112 25.7009 2.89053 25.7407 3.00989 25.8004C3.18893 25.9794 3.34799 26.1386 3.52703 26.3176C3.58671 26.437 3.62656 26.5563 3.68624 26.6757C3.70613 26.8149 3.72598 26.9343 3.74588 27.0736C3.72598 27.2128 3.70613 27.3322 3.68624 27.4714C3.62656 27.5908 3.58671 27.7101 3.52703 27.8295C3.40767 28.0085 3.24857 28.2273 3.06953 28.3069C3.10932 28.287 3.12921 28.2671 3.169 28.2473C3.26846 28.1876 3.36793 28.1478 3.46739 28.0881C3.7459 27.9488 4.04427 27.8295 4.34267 27.7101C4.22331 27.7698 4.10399 27.8096 3.98463 27.8693C4.80025 27.5311 5.63572 27.1929 6.43144 26.7752C7.34652 26.2977 8.20192 25.7407 9.01754 25.124C10.7482 23.7912 12.2402 22.2197 13.4139 20.3895C15.6817 16.9082 16.6764 12.6909 16.6963 8.573C16.6963 6.10626 16.3581 3.61962 15.7613 1.23245C15.5623 0.476518 14.6871 -0.0605853 13.9312 0.198025C13.1354 0.377062 12.658 1.13298 12.8768 1.9486Z" fill="#4C628A"/>
</svg>
