<svg width="115" height="115" viewBox="0 0 115 115" fill="none" xmlns="http://www.w3.org/2000/svg">
<path d="M60.281 0H54.7201V115H60.281V0Z" fill="#4C628A"/>
<path d="M115 54.7195H-7.62939e-06V60.2804H115V54.7195Z" fill="#4C628A"/>
<path d="M18.7973 14.8711L14.8652 18.8032L96.1816 100.12L100.114 96.1876L18.7973 14.8711Z" fill="#4C628A"/>
<path d="M96.1817 14.8708L14.8652 96.1874L18.7973 100.12L100.114 18.803L96.1817 14.8708Z" fill="#4C628A"/>
<path d="M5.31499 33.2486L3.21685 38.3986L109.718 81.7881L111.816 76.6381L5.31499 33.2486Z" fill="#4C628A"/>
<path d="M76.6381 3.22453L33.2486 109.726L38.3986 111.824L81.7881 5.32267L76.6381 3.22453Z" fill="#4C628A"/>
<path d="M109.844 33.4422L3.15849 76.3832L5.23494 81.5421L111.92 38.601L109.844 33.4422Z" fill="#4C628A"/>
<path d="M38.5779 3.16055L33.419 5.23645L76.3485 111.922L81.5074 109.846L38.5779 3.16055Z" fill="#4C628A"/>
</svg>
