<svg width="53" height="90" viewBox="0 0 53 90" fill="none" xmlns="http://www.w3.org/2000/svg">
<path d="M4.32302 4.79747C5.54642 6.50728 6.66639 8.25744 7.70962 10.117C7.5809 9.88889 7.46554 9.69531 7.33682 9.46717C9.3484 13.0963 10.9518 17.0038 11.9279 21.0366C11.8682 20.7816 11.8219 20.5611 11.7622 20.306C12.5593 23.5737 12.9499 26.9204 12.859 30.256C12.8818 30.0086 12.8702 29.7746 12.8929 29.5271C12.8446 31.1364 12.7137 32.7381 12.4179 34.3247C12.2939 35.1285 12.1009 35.9592 11.8945 36.7554C11.7951 37.1122 11.6957 37.4691 11.5963 37.8259C11.8659 36.8858 11.646 37.6475 11.5752 37.8739C11.5045 38.1003 11.4337 38.3267 11.3494 38.5186C10.8407 40.0689 10.1535 41.5695 9.40488 43.0145C9.22298 43.3637 9.00657 43.7264 8.82468 44.0757C8.70594 44.281 8.29414 44.9585 8.80358 44.1237C8.67139 44.2945 8.58721 44.4864 8.46847 44.6917C8.00114 45.4306 7.48587 46.1484 6.97057 46.8663C5.96862 48.1715 4.92622 49.3732 3.73997 50.5117C3.90668 50.3274 4.08678 50.1777 4.25349 49.9934C3.41411 50.7979 2.57482 51.6023 1.7489 52.4412C1.17976 53.021 0.631709 53.5528 0.315889 54.2724C-0.426887 55.8344 0.520308 57.6519 2.09165 58.1127C2.9013 58.3536 3.78355 58.1687 4.58908 58.0931C5.97959 57.9883 7.39693 57.9525 8.80676 57.9991C8.55931 57.9763 8.32538 57.988 8.07792 57.9652C11.9085 58.1017 15.77 58.6237 19.4345 59.6599C19.5305 59.7021 19.613 59.7096 19.7089 59.7517C18.9472 59.5319 19.2696 59.6448 19.4345 59.6599C19.6609 59.7307 19.8393 59.7804 20.0657 59.8512C20.4705 59.9716 20.8889 60.1266 21.2592 60.2606C21.9653 60.5419 22.6714 60.8232 23.3699 61.1869C23.7057 61.3343 24.0204 61.5297 24.3697 61.7116C24.5271 61.8093 24.6844 61.9069 24.8418 62.0046C24.9992 62.1023 25.2661 62.2766 24.5406 61.8437C24.65 61.9204 24.7458 61.9625 24.8552 62.0392C25.4847 62.4299 26.1278 62.855 26.7152 63.3417C28.1643 64.4068 29.4812 65.6428 30.7771 66.9267C30.5928 66.76 30.4431 66.5798 30.2588 66.4131C35.0586 71.3804 38.6872 77.3212 42.2545 83.2064C43.1901 84.7899 44.1602 86.3599 45.1303 87.93C45.4627 88.4763 46.3185 88.9378 46.9094 89.0255C47.5347 89.0997 48.1274 88.9878 48.6872 88.69C49.8969 88.0195 50.4116 86.5862 49.9346 85.2613C48.9211 82.3563 47.9076 79.4513 46.8806 76.5119C45.9075 73.7105 44.8173 70.9149 44.1203 68.0058C44.18 68.2608 44.2263 68.4813 44.286 68.7364C43.7025 66.2204 43.2915 63.6371 43.011 61.0825C42.8775 59.8224 42.7785 58.549 42.6795 57.2755C42.6267 56.2225 42.5261 55.1484 42.5423 54.0685C42.5195 54.3159 42.5312 54.55 42.5084 54.7974C42.5609 53.5046 42.7785 52.2269 43.1264 50.9779C43.1761 50.7995 43.2258 50.6211 43.262 50.4081C43.3825 50.0033 43.0286 51.1353 43.2199 50.5041C43.3403 50.0993 43.4743 49.7289 43.5947 49.3241C43.8281 48.5969 44.1094 47.8908 44.3907 47.1847C45.0089 45.711 45.7096 44.245 46.4582 42.8C46.6401 42.4507 46.8354 42.136 47.0173 41.7867C47.115 41.6293 47.2127 41.4719 47.297 41.2801C47.3391 41.1841 47.3811 41.0882 47.4712 41.0133C47.3945 41.1227 47.1151 41.6293 47.3181 41.2321C47.7088 40.6026 48.134 39.9597 48.5247 39.3302C49.3675 38.1267 50.2583 36.9444 51.3334 35.9287C51.1667 36.113 50.9866 36.2628 50.8199 36.4471C50.91 36.3722 51 36.2973 51.0767 36.1879C51.6037 35.7041 52.0558 35.1301 52.1722 34.4088C52.2464 33.7834 52.1346 33.1909 51.8367 32.6311C51.1662 31.4214 49.7195 30.8722 48.408 31.3837C47.8213 31.6124 47.2211 31.8067 46.642 31.953C46.897 31.8933 47.1176 31.8471 47.3726 31.7874C46.1664 32.059 44.9062 32.1925 43.6614 32.161C43.9088 32.1838 44.1429 32.1721 44.3904 32.1949C43.627 32.1745 42.8845 32.1061 42.1497 31.9553C41.7718 31.9038 41.4151 31.8044 41.0372 31.7529C40.8587 31.7032 40.6457 31.667 40.4673 31.6173C40.3848 31.6097 40.2888 31.5676 40.2063 31.56C40.1584 31.539 40.1105 31.5179 40.0759 31.5314C39.7536 31.4185 40.5287 31.6729 40.4807 31.6518C38.9304 31.143 37.4222 30.5383 35.9427 29.8032C35.58 29.5867 35.1963 29.4183 34.8336 29.2019C34.6762 29.1042 34.4709 28.9854 34.3135 28.8878C33.9028 28.6503 34.7242 29.1253 34.5668 29.0276C34.4574 28.951 34.3615 28.9089 34.2521 28.8322C33.4787 28.3784 32.7607 27.8631 32.0084 27.3612C30.4768 26.2885 29.0219 25.1064 27.6225 23.8628C25.9908 22.4315 24.4012 20.9043 22.8806 19.3501C23.0649 19.5168 23.2146 19.697 23.3989 19.8637C18.9467 15.2778 14.9178 10.2485 11.1727 5.02901C10.3027 3.81759 9.48075 2.62719 8.64525 1.40231C7.82321 0.211937 5.88561 -0.0663152 4.77012 0.845805C3.67396 1.90944 3.42609 3.51702 4.32302 4.79747C6.27251 7.65554 8.29108 10.4867 10.4342 13.2295C12.9172 16.4362 15.5729 19.5755 18.3607 22.544C21.3194 25.6448 24.4371 28.6437 27.8958 31.1915C30.9784 33.4885 34.4136 35.5684 38.084 36.7216C39.8472 37.2667 41.6526 37.7157 43.5093 37.7869C45.5656 37.8598 47.4797 37.67 49.4797 37.0889C49.8728 36.9754 50.2524 36.8274 50.5975 36.6928C49.6965 35.0959 48.8299 33.4855 47.9289 31.8886C45.5295 34.0966 43.7519 36.7778 42.1453 39.5912C40.5386 42.4046 39.1643 45.4057 38.2292 48.5139C37.755 50.0507 37.3496 51.5606 37.1843 53.1758C37.0095 55.0729 37.1648 57.0004 37.3066 58.8935C37.6657 63.485 38.2931 68.0515 39.6514 72.4522C40.4209 74.9354 41.342 77.3993 42.2151 79.8421C43.115 82.354 43.967 84.8448 44.867 87.3567C46.4639 86.4556 48.0744 85.589 49.6713 84.688C45.7506 78.3044 42.1001 71.6962 37.3072 65.931C34.8628 63.0273 32.1423 60.2313 28.941 58.1397C27.3269 57.0594 25.6152 56.1364 23.8192 55.4054C21.7623 54.617 19.5866 54.0341 17.4303 53.6026C15.0475 53.1003 12.6152 52.7765 10.181 52.6521C8.79222 52.5575 7.39584 52.5454 5.97841 52.5812C4.84294 52.6264 3.73433 52.7406 2.61233 52.8203C2.85978 52.843 3.09387 52.8313 3.34132 52.854C3.77307 53.0435 4.1567 53.212 4.58844 53.4015C4.77273 53.5682 4.92262 53.7484 5.10691 53.9151C5.23563 54.1432 5.35083 54.3368 5.47955 54.565C5.53925 54.82 5.58555 55.0405 5.64525 55.2956C5.62246 55.543 5.63409 55.7771 5.6113 56.0245C5.52535 56.4159 5.39734 56.9032 5.14055 57.1623C5.19612 57.1009 5.21719 57.053 5.27275 56.9915C5.40494 56.8207 5.55059 56.6844 5.68278 56.5135C6.07175 56.0835 6.50866 55.6746 6.94561 55.2656C6.7789 55.4499 6.59882 55.5997 6.43211 55.784C7.61836 54.6455 8.83905 53.4935 9.93695 52.2304C11.2015 50.783 12.3088 49.2379 13.3066 47.6162C15.4075 44.1329 16.9328 40.397 17.7309 36.4278C19.3102 28.8537 18.1827 20.864 15.4313 13.7063C13.7624 9.42669 11.4933 5.34136 8.84292 1.60354C7.98637 0.426621 6.10452 0.0869154 4.96798 1.04701C3.70858 1.89596 3.39158 3.53048 4.32302 4.79747Z" fill="#E0E9FD"/>
</svg>
