<svg width="29" height="29" viewBox="0 0 29 29" fill="none" xmlns="http://www.w3.org/2000/svg">
<path fill-rule="evenodd" clip-rule="evenodd" d="M14.5 28.103C22.232 28.103 28.5 21.835 28.5 14.103C28.5 6.37104 22.232 0.103027 14.5 0.103027C6.76801 0.103027 0.5 6.37104 0.5 14.103C0.5 21.835 6.76801 28.103 14.5 28.103ZM11.4906 9.23745C10.978 8.72489 10.147 8.72489 9.63442 9.23745C9.12186 9.75001 9.12186 10.581 9.63442 11.0936L12.6438 14.103L9.63442 17.1124C9.12186 17.625 9.12186 18.456 9.63442 18.9686C10.147 19.4812 10.978 19.4812 11.4906 18.9686L14.5 15.9592L17.5094 18.9686C18.022 19.4812 18.853 19.4812 19.3656 18.9686C19.8781 18.456 19.8781 17.625 19.3656 17.1124L16.3562 14.103L19.3656 11.0936C19.8781 10.581 19.8781 9.75001 19.3656 9.23745C18.853 8.72489 18.022 8.72489 17.5094 9.23745L14.5 12.2469L11.4906 9.23745Z" fill="#FF0000"/>
</svg>
