<svg width="87" height="87" viewBox="0 0 87 87" fill="none" xmlns="http://www.w3.org/2000/svg">
<path d="M45.2348 0H41.0619V86.296H45.2348V0Z" fill="#A99BFF"/>
<path d="M86.2961 41.0615H0V45.2344H86.2961V41.0615Z" fill="#A99BFF"/>
<path d="M14.1055 11.1592L11.1548 14.1099L72.1747 75.1298L75.1254 72.1791L14.1055 11.1592Z" fill="#A99BFF"/>
<path d="M72.1747 11.1588L11.1548 72.1787L14.1055 75.1294L75.1254 14.1094L72.1747 11.1588Z" fill="#A99BFF"/>
<path d="M3.98826 24.9499L2.41382 28.8145L82.3326 61.3739L83.907 57.5094L3.98826 24.9499Z" fill="#A99BFF"/>
<path d="M57.5092 2.41958L24.9497 82.3384L28.8143 83.9128L61.3738 3.99403L57.5092 2.41958Z" fill="#A99BFF"/>
<path d="M82.4272 25.0954L2.37036 57.3184L3.92853 61.1896L83.9854 28.9666L82.4272 25.0954Z" fill="#A99BFF"/>
<path d="M28.9486 2.37193L25.0774 3.92969L57.2917 83.9865L61.1629 82.4288L28.9486 2.37193Z" fill="#A99BFF"/>
</svg>
