<svg width="31" height="53" viewBox="0 0 31 53" fill="none" xmlns="http://www.w3.org/2000/svg">
<path d="M12.1069 1.9486C12.3854 3.04272 12.6043 4.13685 12.7635 5.27076C12.7436 5.13151 12.7236 5.01215 12.7037 4.8729C13.0021 7.08103 13.042 9.34883 12.7436 11.557C12.7634 11.4177 12.7833 11.2984 12.8032 11.1591C12.5645 12.9495 12.1069 14.7001 11.4107 16.3512C11.4704 16.2318 11.5102 16.1125 11.5699 15.9931C11.2317 16.7889 10.8538 17.5647 10.3962 18.3007C10.1774 18.6787 9.91874 19.0567 9.66013 19.4147C9.54077 19.5739 9.42145 19.733 9.30209 19.8922C9.62038 19.4744 9.36175 19.8126 9.28218 19.9121C9.20261 20.0115 9.123 20.111 9.04343 20.1906C8.48642 20.8669 7.84988 21.4836 7.19341 22.0605C7.03426 22.1998 6.85523 22.339 6.69608 22.4783C6.59662 22.5578 6.25842 22.8164 6.67617 22.4982C6.5767 22.5578 6.49715 22.6374 6.39769 22.717C6.01972 22.9955 5.62188 23.2541 5.22401 23.5127C4.46808 23.9702 3.7121 24.3681 2.89649 24.7063C3.01584 24.6466 3.13516 24.6068 3.25452 24.5471C2.67762 24.7859 2.10078 25.0246 1.52388 25.2832C1.12602 25.4622 0.748074 25.6214 0.449678 25.9198C-0.226687 26.5563 -0.107386 27.6505 0.588871 28.1876C0.946946 28.4661 1.42444 28.5456 1.84219 28.665C2.55834 28.8838 3.27444 29.1424 3.97069 29.4408C3.85133 29.3812 3.73201 29.3414 3.61266 29.2817C5.5025 30.0973 7.33264 31.1119 8.96387 32.3452C9.00366 32.385 9.04346 32.4049 9.08325 32.4447C8.74507 32.1861 8.8843 32.3054 8.96387 32.3452C9.06334 32.4248 9.14289 32.4845 9.24236 32.564C9.42139 32.7033 9.60045 32.8624 9.7596 33.0017C10.058 33.2802 10.3564 33.5587 10.6349 33.877C10.7741 34.0162 10.8935 34.1754 11.0327 34.3345C11.0924 34.4141 11.1521 34.4937 11.2118 34.5732C11.2714 34.6528 11.371 34.7921 11.0925 34.434C11.1323 34.4937 11.172 34.5335 11.2118 34.5931C11.4505 34.9114 11.6893 35.2496 11.8882 35.6077C12.4054 36.4233 12.8231 37.2986 13.221 38.1938C13.1613 38.0744 13.1215 37.9551 13.0619 37.8357C14.4942 41.2573 15.1506 44.9375 15.7872 48.578C15.9463 49.5527 16.1254 50.5275 16.3044 51.5023C16.3641 51.8404 16.7022 52.2383 16.9807 52.3974C17.2791 52.5566 17.5975 52.6163 17.9357 52.5765C18.6717 52.477 19.2088 51.8603 19.2287 51.1044C19.2884 49.4533 19.3481 47.8021 19.4077 46.1311C19.4674 44.5397 19.4674 42.9283 19.6862 41.3369C19.6663 41.4761 19.6465 41.5955 19.6266 41.7347C19.8255 40.3621 20.1239 38.9895 20.4819 37.6567C20.661 37.0002 20.8599 36.3437 21.0588 35.6873C21.2379 35.1502 21.3971 34.5931 21.6159 34.056C21.5562 34.1754 21.5164 34.2947 21.4567 34.4141C21.7352 33.7775 22.0933 33.1807 22.5111 32.6237C22.5708 32.5442 22.6304 32.4646 22.6901 32.3651C22.8293 32.1861 22.4314 32.6834 22.6503 32.4049C22.7895 32.2259 22.9288 32.0667 23.068 31.8877C23.3266 31.5694 23.6052 31.271 23.8837 30.9726C24.4805 30.3559 25.117 29.7591 25.7735 29.1822C25.9327 29.043 26.0918 28.9236 26.2509 28.7844C26.3305 28.7247 26.4101 28.665 26.4897 28.5854C26.5295 28.5456 26.5692 28.5059 26.6289 28.486C26.5692 28.5257 26.3306 28.7247 26.5096 28.5655C26.8279 28.3268 27.166 28.0881 27.4843 27.8494C28.1408 27.4117 28.8172 26.994 29.5532 26.6956C29.4338 26.7553 29.3145 26.7951 29.1952 26.8547C29.2548 26.8348 29.3145 26.8149 29.3742 26.7752C29.7323 26.6359 30.0704 26.437 30.2694 26.0988C30.4285 25.8004 30.4882 25.4821 30.4484 25.1439C30.3489 24.4079 29.7323 23.8509 28.9763 23.8509C28.6381 23.8509 28.3 23.831 27.9817 23.7912C28.1209 23.8111 28.2403 23.831 28.3795 23.8509C27.7231 23.7514 27.0665 23.5724 26.4499 23.3138C26.5692 23.3734 26.6886 23.4132 26.808 23.4729C26.43 23.3138 26.0719 23.1347 25.7337 22.9159C25.5547 22.8164 25.3956 22.6971 25.2165 22.5976C25.137 22.5379 25.0375 22.4783 24.9579 22.4186C24.9181 22.3987 24.8783 22.3589 24.8385 22.339C24.8186 22.3191 24.7988 22.2992 24.7789 22.2992C24.6396 22.1799 24.9778 22.4584 24.9579 22.4385C24.2815 21.8815 23.6449 21.2847 23.0481 20.6282C22.9089 20.4492 22.7498 20.29 22.6105 20.111C22.5509 20.0314 22.4713 19.9319 22.4116 19.8524C22.2525 19.6534 22.5708 20.0513 22.5111 19.9717C22.4713 19.9121 22.4315 19.8723 22.3917 19.8126C22.0933 19.4346 21.8347 19.0368 21.5561 18.6389C20.9991 17.8034 20.5019 16.9281 20.0444 16.0329C19.5072 14.9985 19.0099 13.9242 18.5524 12.85C18.6121 12.9694 18.6518 13.0887 18.7115 13.2081C17.3786 10.0451 16.3442 6.74284 15.4888 3.4008C15.2898 2.62497 15.1108 1.86904 14.9318 1.09321C14.7528 0.337276 13.8376 -0.179958 13.1016 0.0587585C12.3457 0.377048 11.908 1.13298 12.1069 1.9486C12.5247 3.75887 12.9823 5.56915 13.5194 7.35953C14.1361 9.4483 14.8523 11.5371 15.6679 13.5662C16.5432 15.6947 17.5179 17.8034 18.7513 19.7529C19.8454 21.5035 21.1583 23.2143 22.7696 24.5073C23.5455 25.124 24.3611 25.7009 25.2762 26.0988C26.2907 26.5364 27.2854 26.8149 28.3994 26.9144C28.6183 26.9343 28.837 26.9343 29.036 26.9343C28.8967 25.9596 28.7773 24.9848 28.6381 24.01C27.0069 24.6466 25.5944 25.6413 24.2417 26.7354C22.889 27.8295 21.6159 29.0629 20.5417 30.4355C20.0046 31.1119 19.5072 31.7882 19.1093 32.564C18.6518 33.4791 18.3534 34.4738 18.055 35.4485C17.3389 37.8158 16.7619 40.2229 16.5829 42.6896C16.4834 44.0821 16.4636 45.4945 16.4238 46.8871C16.384 48.3194 16.3243 49.7318 16.2845 51.1641C17.2592 51.0248 18.234 50.9055 19.2088 50.7662C18.4927 46.8075 17.9555 42.7891 16.6823 38.9696C16.0259 37.04 15.2103 35.1104 14.0167 33.4393C13.4199 32.5839 12.7436 31.7882 11.9877 31.0721C11.1124 30.2763 10.1375 29.5602 9.14289 28.9236C8.04877 28.2075 6.89501 27.5709 5.70143 27.0338C5.02506 26.7155 4.32881 26.437 3.61266 26.1784C3.03576 25.9794 2.45882 25.8203 1.88192 25.6413C2.00128 25.7009 2.1207 25.7407 2.24005 25.8004C2.41909 25.9794 2.57816 26.1386 2.7572 26.3176C2.81688 26.437 2.85672 26.5563 2.9164 26.6757C2.93629 26.8149 2.95615 26.9343 2.97604 27.0736C2.95615 27.2128 2.93629 27.3322 2.9164 27.4714C2.85672 27.5908 2.81688 27.7101 2.7572 27.8295C2.63784 28.0085 2.47873 28.2273 2.29969 28.3069C2.33948 28.287 2.35937 28.2671 2.39916 28.2473C2.49863 28.1876 2.59809 28.1478 2.69756 28.0881C2.97606 27.9488 3.27444 27.8295 3.57283 27.7101C3.45347 27.7698 3.33415 27.8096 3.2148 27.8693C4.03041 27.5311 4.86588 27.1929 5.6616 26.7752C6.57668 26.2977 7.43209 25.7407 8.2477 25.124C9.9784 23.7912 11.4704 22.2197 12.6441 20.3895C14.9119 16.9082 15.9066 12.6909 15.9264 8.573C15.9264 6.10626 15.5882 3.61962 14.9914 1.23245C14.7925 0.476518 13.9173 -0.0605853 13.1613 0.198025C12.3656 0.377062 11.8881 1.13298 12.1069 1.9486Z" fill="#E0E9FD"/>
</svg>
